<?xml version="1.0" encoding="utf-8" ?>
<svg xmlns="http://www.w3.org/2000/svg" xmlns:xlink="http://www.w3.org/1999/xlink" width="1024" height="1024">
	<path fill="#DF7A99" d="M184.389 259.653C183.015 260.053 180.859 260.302 179.478 259.824C177.247 259.052 175.633 255.876 174.801 253.854C173.08 249.675 168.477 234.274 170.32 230.53C170.985 229.177 172.385 227.867 173.502 226.889C183.691 217.97 194.947 210.066 205.47 201.521C217.611 191.662 229.847 182.009 242.19 172.403C249.152 166.984 256.065 161.147 263.506 156.41C271.117 151.564 279.69 147.88 288.316 145.274C303.623 140.65 319.379 138.667 335.25 137.141C343.381 136.36 353.008 136.541 360.769 134.109C369.026 131.522 376.651 125.967 384.418 122.158C396.997 115.989 410.735 110.891 424.133 106.79Q428.085 105.605 432.071 104.545Q436.058 103.484 440.076 102.549Q444.094 101.614 448.139 100.805Q452.184 99.9958 456.252 99.3138Q460.321 98.6317 464.409 98.0773Q468.497 97.5229 472.6 97.0966Q476.703 96.6704 480.818 96.3728Q484.932 96.0751 489.054 95.9064Q493.176 95.7377 497.301 95.698Q501.426 95.6583 505.55 95.7477Q509.674 95.8371 513.794 96.0556Q517.913 96.274 522.024 96.6212Q526.135 96.9684 530.232 97.4441Q534.33 97.9198 538.411 98.5235Q542.492 99.1271 546.552 99.8582Q550.612 100.589 554.647 101.447C562.147 103.067 569.642 105.103 577.033 107.163C581.995 108.547 587.85 111.017 593.007 111.128C600.181 111.283 607.891 109.739 615.048 108.986C634.002 106.993 652.992 105.233 671.923 103.031C689.69 100.964 707.836 97.9587 725.754 98.5136C734.044 98.7704 743.673 99.7836 751.054 103.908C762.741 110.44 761.347 126.753 764.829 138.092C765.339 139.816 765.564 140.924 764.659 142.62C762.67 146.343 755.55 148.118 751.731 149.206C712.613 161.749 673.822 175.213 634.567 187.365C623.96 190.649 609.041 196.908 598.898 198.59C583.402 202.691 567.54 204.579 551.814 207.53C494.478 218.287 436.467 225.821 378.755 234.258L262.004 250.703Q236.007 254.509 209.876 257.255C201.469 258.18 192.842 259.466 184.389 259.653Z"/>
	<path fill="#C06165" d="M535.761 117.118Q553.206 115.173 570.695 113.672C576.216 113.152 582.203 111.967 587.726 112.292L587.695 112.674C582.372 114.363 576.394 114.246 570.867 114.833L537.149 118.379C528.685 120.483 519.216 120.443 510.507 121.253C505.512 121.718 500.603 122.767 495.625 123.278C489.2 123.938 482.488 124.113 476.021 124.441L477.724 124.044C473.69 124.215 465.133 123.73 461.715 125.222C463.092 125.9 465.008 125.582 466.511 125.515L467.287 125.057C468.881 125.74 470.941 125.585 472.671 125.636C471.994 126.028 429.657 129.524 426.557 129.379L426.583 129.039C427.806 128.254 429.568 128.041 431.003 127.84C452.897 124.774 475.189 123.263 497.206 121.195C510.065 119.988 522.882 118.036 535.761 117.118Z"/>
	<path fill="#FEB8D5" d="M737.286 113.44C738.773 113.501 741.146 113.293 742.314 114.223C741.262 115.553 738.949 116.165 737.402 116.801L737.65 117.083C736.901 117.518 736.324 117.877 735.462 118.049C729.635 119.211 722.783 118.849 716.801 119.279C704.663 120.151 692.458 121.282 680.348 122.504L577.376 133.638C558.076 135.675 379.441 153.32 375.067 156.027C364.837 156.831 354.316 156.905 344.163 158.081C339.159 158.66 334.51 160.344 329.607 161.305C326.007 162.01 322.267 162.092 318.714 162.871C311.91 163.06 304.63 164.967 297.962 166.364Q288.208 168.792 278.571 171.647C279.24 174.641 279.345 177.668 279.79 180.694C280.661 186.615 282.144 192.563 282.193 198.563C290.15 197.339 298.041 195.816 305.947 194.306C304.634 195.254 303.623 196.107 302.6 197.367L292.125 199.891C287.924 200.018 283.789 200.974 279.776 202.191C277.013 202.85 273.665 204.122 270.877 204.217L270.746 203.964L271.205 203.833L271.457 204.224L271.569 203.738C273.468 203.275 275.195 202.734 276.987 201.951L277.195 201.148L275.268 200.329C272.622 197.407 270.182 177.885 269.573 172.776C268.518 172.806 267.847 172.702 266.854 172.344L266.325 170.994C269.351 170.082 272.335 169.138 275.46 168.625C288.622 165.283 301.756 162.222 315.108 159.714C322.088 157.083 338.867 156.558 346.576 155.967Q358.638 155.021 370.661 153.67L554.976 132.556C561.59 132.46 584.885 130.254 590.381 128.591C601.131 128.287 613.539 126.022 624.435 124.907C642.601 123.048 660.841 121.743 678.985 119.712C698.394 117.54 717.775 114.53 737.286 113.44Z"/>
	<path fill="#FEFEFE" d="M275.46 168.625C288.622 165.283 301.756 162.222 315.108 159.714L316.343 160.346L314.264 160.726L315.503 161.584C313.221 163.552 301.759 164.443 298.049 165.644C293.232 166.796 280.378 170.936 276.141 170.026C275.811 169.52 275.598 169.222 275.46 168.625Z"/>
	<path fill="#FEFEFE" d="M737.65 117.083C738.878 117.596 739.5 117.6 740.08 118.866C741.653 122.3 743.643 132.174 742.415 135.68C742.319 135.955 742.179 136.212 742.044 136.47C733.179 135.897 723.134 138.13 714.252 139.208L653.276 146.889L569.791 157.276Q552.715 159.286 535.673 161.566C530.149 162.294 524.238 162.711 518.822 163.973C512.644 164.417 506.379 165.384 500.274 166.426C484.985 168.019 469.725 170.484 454.474 172.445L404.219 178.417C391.201 180.083 377.909 182.552 364.837 183.474C359.132 185.542 352.696 185.272 346.831 187.037C342.802 187.444 338.919 188.678 334.922 189.264C325.367 190.71 315.509 193.515 305.947 194.306C298.041 195.816 290.15 197.339 282.193 198.563C282.144 192.563 280.661 186.615 279.79 180.694C279.345 177.668 279.24 174.641 278.571 171.647Q288.208 168.792 297.962 166.364C304.63 164.967 311.91 163.06 318.714 162.871C322.267 162.092 326.007 162.01 329.607 161.305C334.51 160.344 339.159 158.66 344.163 158.081C354.316 156.905 364.837 156.831 375.067 156.027C379.441 153.32 558.076 135.675 577.376 133.638L680.348 122.504C692.458 121.282 704.663 120.151 716.801 119.279C722.783 118.849 729.635 119.211 735.462 118.049C736.324 117.877 736.901 117.518 737.65 117.083Z"/>
	<defs>
		<linearGradient id="gradient_0" gradientUnits="userSpaceOnUse" x1="463.12848" y1="165.11458" x2="474.97479" y2="223.10115">
			<stop offset="0" stop-color="#5D2D2B"/>
			<stop offset="1" stop-color="#904949"/>
		</linearGradient>
	</defs>
	<path fill="url(#gradient_0)" d="M748.195 139.386C750.573 139.407 752.935 139.215 755.149 140.207C755.833 141.74 756.104 142.314 755.73 144.03C754.588 145.71 752.284 147.364 751.731 149.206C712.613 161.749 673.822 175.213 634.567 187.365C623.96 190.649 609.041 196.908 598.898 198.59C583.402 202.691 567.54 204.579 551.814 207.53C494.478 218.287 436.467 225.821 378.755 234.258L262.004 250.703Q236.007 254.509 209.876 257.255C201.469 258.18 192.842 259.466 184.389 259.653L183.945 259.35L183.978 258.537C191.611 251.262 201.347 245.956 210.142 240.195C219.739 233.907 229.426 227.896 239.229 221.93C245.599 218.054 252.022 213.849 258.859 210.847C269.593 206.134 281.069 203.685 292.125 199.891L302.6 197.367C310.049 196.18 317.422 194.352 324.857 193.042C335.761 191.12 346.711 189.698 357.645 187.995C363.729 187.92 370.425 186.58 376.491 185.815L416.406 180.617C446.942 176.573 477.913 173.613 508.275 168.514L525.717 166.53C535.766 165.903 545.886 164.085 555.89 162.87Q590.62 158.837 625.26 154.088L675.634 147.926C684.24 146.864 693.124 146.183 701.617 144.471C706.038 144.345 710.759 143.379 715.162 142.818C726.111 141.425 737.157 139.821 748.195 139.386Z"/>
	<path fill="#8A4A49" d="M343.54 224.136C347.99 220.51 362.468 221.657 368.747 220.084L367.234 219.169L367.721 218.677C374.092 217.532 380.371 217.036 386.775 216.252C390.553 215.79 394.854 214.531 398.627 214.809C396.147 217.061 383.624 217.802 379.968 218.235C384.606 218.517 396.239 215.615 398.603 216.617C386.917 219.775 372.395 220.507 360.242 222.035C354.932 222.703 348.833 224.196 343.54 224.136Z"/>
	<path fill="#C06165" d="M755.149 140.207C755.833 141.74 756.104 142.314 755.73 144.03C754.588 145.71 752.284 147.364 751.731 149.206C712.613 161.749 673.822 175.213 634.567 187.365C623.96 190.649 609.041 196.908 598.898 198.59C602.962 195.93 608.219 194.849 612.791 193.245C622.826 189.722 632.812 186.225 642.937 182.958Q684.11 169.651 724.907 155.235C733.1 152.265 741.652 149.861 749.627 146.366C753.143 144.826 753.789 143.677 755.149 140.207Z"/>
	<path fill="#C06165" d="M398.603 216.617C427.509 213.054 456.398 208.858 485.243 204.825C491.864 203.899 498.429 202.665 505.067 201.851C510.982 201.126 516.954 201.214 522.871 200.546L523.112 200.88C519.72 202.527 513.635 201.372 509.696 201.721C506.573 201.998 490.047 204.774 488.001 205.747C493.081 207.459 517.872 201.233 521.938 202.659C516.382 204.062 509.829 204.314 504.116 205.101L462.727 210.757L338.471 227.812C330.232 228.903 268.589 238.489 266.087 237.205C274.975 233.869 285.411 233.107 294.779 231.686L328.647 226.402C333.274 225.695 339.115 225.496 343.54 224.136C348.833 224.196 354.932 222.703 360.242 222.035C372.395 220.507 386.917 219.775 398.603 216.617Z"/>
	<defs>
		<linearGradient id="gradient_1" gradientUnits="userSpaceOnUse" x1="348.24991" y1="225.87675" x2="346.65912" y2="207.04645">
			<stop offset="0" stop-color="#7F555E"/>
			<stop offset="1" stop-color="#A7828A"/>
		</linearGradient>
	</defs>
	<path fill="url(#gradient_1)" d="M309.566 225.401Q278.384 230.403 246.994 233.867C243.224 234.31 224.598 235.705 222.789 236.61C222.604 236.702 222.445 236.839 222.273 236.953L222.332 236.414C226.335 232.864 234.495 230.443 239.677 229.373C253.723 226.472 268.364 224.813 282.557 222.602Q310.577 217.989 338.697 214.038L398.84 206.095L471.153 196.113C484.549 194.267 498.497 191.529 511.981 191.046C511.176 192.607 476.819 194.075 473.315 197.237L473.552 198.904C470.418 201.193 447.537 204.324 442.364 204.955C439.892 205.257 437.511 205.154 435.06 205.728L435.002 206.201C436.053 206.581 436.405 206.636 437.509 206.333C441.629 205.203 446.34 205.079 450.587 204.525L483.234 200.425L512.586 196.705C515.805 196.305 518.573 195.29 521.886 195.536L521.88 195.721C512.375 196.703 502.8 198.551 493.274 199.777L420.545 209.128L339.956 220.962C329.834 222.475 319.645 223.618 309.566 225.401Z"/>
	<path fill="#C06165" d="M309.566 225.401L311.129 224.124C315.702 223.473 320.034 222.233 324.54 221.34C332.659 219.73 340.999 218.434 349.17 217.029C362.418 214.751 376.01 213.44 389.338 211.595C399.194 210.23 410.755 207.002 420.545 209.128L339.956 220.962C329.834 222.475 319.645 223.618 309.566 225.401Z"/>
	<defs>
		<linearGradient id="gradient_2" gradientUnits="userSpaceOnUse" x1="502.71405" y1="218.16232" x2="504.72372" y2="970.77112">
			<stop offset="0" stop-color="#C36A6E"/>
			<stop offset="1" stop-color="#DE8995"/>
		</linearGradient>
	</defs>
	<path fill="url(#gradient_2)" d="M186.435 273.679C193.693 268.204 222.856 262.156 232.631 260.275C250.125 256.91 267.95 254.683 285.585 252.128L391.568 237.33C425.22 232.559 458.791 227.289 492.492 222.868C506.341 221.051 520.256 218.768 534.187 217.704C554.62 216.144 575.827 217.502 596.165 219.648C611.962 219.777 634.541 225.071 649.22 230.514C660.126 234.557 670.431 240.34 680.81 245.552L724.897 267.587Q758.326 283.971 791.417 301.027C802.105 306.5 813.15 311.738 823.509 317.799C829.145 321.096 834.258 324.601 838.872 329.251C844.821 335.245 848.822 341.447 848.626 350.234C848.482 356.698 846.312 363.33 845.138 369.69L840.36 395.33C839.212 401.571 838.511 408.29 836.209 414.231C834.427 418.827 831.475 422.785 827.85 426.095C820.047 433.223 809.58 437.497 799.727 440.908C791.153 488.232 780.758 535.305 771.081 582.415Q756.089 659.115 739.6 735.508L724.441 807.364C722.417 816.788 720.638 829.495 717.486 838.246C715.456 843.884 710.914 848.345 706.096 851.716C697.991 857.386 688.602 861.097 679.606 865.108Q660.381 873.675 640.984 881.845L543.274 923.854L477.372 952.042C464.47 957.672 451.222 964.633 437.809 968.816C427.829 971.928 416.422 973.178 406.083 971.294C393.879 969.071 384.963 962.699 378.043 952.54C363.615 931.36 350.509 909.003 336.932 887.251C323.596 865.885 309.697 844.92 296.487 823.461C289.705 812.445 278.591 799.014 274.066 787.303C270.154 777.177 268.841 765.405 266.825 754.74L257.177 704.557Q240.21 618.298 224.389 531.822Q216.409 484.294 207.477 436.936C206.151 430.238 205.326 423.366 203.8 416.724C203.472 415.3 203.075 413.817 202.368 412.529C200.316 408.788 196.613 405.412 193.772 402.21C185.153 392.493 174.006 381.32 168.926 369.232C164.043 357.615 163.633 342.163 161.644 329.611C160.272 320.948 156.755 308.449 158.374 300.026C160.042 291.351 170.096 282.826 177.218 278.357C180.096 276.552 183.207 274.776 186.435 273.679Z"/>
	<path fill="#DF7A99" d="M559.079 437.924C582.926 431.891 606.918 426.606 630.867 421.022L755.575 391.266C771.448 387.342 787.559 384.003 803.317 379.673C809.057 378.095 823.643 372.286 828.029 372.027C827.762 372.91 825.753 373.782 824.92 374.294C824.557 375.585 824.276 375.577 823.113 376.196C811.247 382.513 785.981 386.998 772.096 390.42Q719.317 403.577 666.242 415.485L535.975 446.54C506.723 453.696 477.406 461.543 447.78 467.006C439.019 468.622 430.043 468.581 421.261 469.973L422.217 470.029C411.44 470.707 400.424 472.003 389.658 472.202C356.91 472.808 312.466 467.461 286.961 444.769C286.631 444.476 286.328 444.153 286.018 443.839C287.528 443.969 289.129 445.548 290.502 446.326C293.717 448.146 297.54 452.441 301.318 452.658C299.162 450.084 297.558 448.26 294.474 446.771L294.107 446.07C295.886 446.856 297.318 448.053 299.017 448.97C303.637 451.466 308.915 454.16 313.819 455.975C318.688 457.776 336.781 460.956 339.154 463.634C350.938 466.156 364.364 468.597 376.434 468.515C384.005 467.461 391.627 467.622 399.248 467.329C410.791 466.884 422.724 465.988 434.163 464.374C442.212 462.371 450.54 461.124 458.672 459.448Q476.084 455.736 493.403 451.607Q497.457 450.461 501.523 449.36C514.132 447.453 526.797 443.604 539.196 440.542C544.175 439.312 549.346 437.722 554.46 437.203C556.14 437.033 557.503 437.372 559.079 437.924Z"/>
	<path fill="#FEFEFE" d="M309.184 456.881C313.149 457.269 317.384 458.837 321.263 459.813Q330.139 462.05 339.154 463.634C350.938 466.156 364.364 468.597 376.434 468.515C383.4 470.109 391.48 469.617 398.648 470.304C398.39 470.44 398.152 470.622 397.875 470.711C394.652 471.747 388.799 471.067 385.355 471.09C361.832 471.244 330.124 468.509 309.184 456.881Z"/>
	<path fill="#FEFEFE" d="M559.079 437.924C582.926 431.891 606.918 426.606 630.867 421.022L755.575 391.266C771.448 387.342 787.559 384.003 803.317 379.673C809.057 378.095 823.643 372.286 828.029 372.027C827.762 372.91 825.753 373.782 824.92 374.294L824.198 374.524C818.805 376.273 813.724 378.948 808.263 380.622C798.804 383.521 788.892 385.591 779.268 387.917L729.212 399.844L586.389 433.456L503.559 453.531C484.768 458.083 449.044 467.983 431.018 467.332L438.377 465.733C458.873 460.814 479.813 457.627 500.16 451.997C502.998 451.452 505.776 450.674 508.567 449.93C514.299 449.297 520.31 447.432 525.915 446.055Q542.47 441.88 559.079 437.924Z"/>
	<path fill="#FEFEFE" d="M594.611 707.006C595.195 707.151 594.858 706.999 595.438 707.747C595.485 711.435 591 747.859 589.935 749.366C588.095 751.97 546.143 766.407 540.738 768.033C537.974 768.865 536.393 768.469 533.906 767.093C533.203 766.165 532.457 765.199 532.048 764.099C529.061 756.057 532.643 742.658 536.064 735.143C537.673 731.608 540.038 727.53 543.268 725.291C548.852 721.418 564.758 717.409 572.017 714.999Q583.396 711.235 594.611 707.006Z"/>
	<path fill="#DF7A99" d="M588.038 716.533C588.058 716.555 588.083 716.574 588.099 716.6C588.965 718.044 585.596 742.364 585.137 745.805C578.092 748.717 570.607 750.972 563.405 753.492C555.534 756.246 547.565 759.508 539.441 761.369C539.314 761.071 539.18 760.776 539.062 760.475C537.588 756.705 539.734 740.992 541.645 736.885C543.024 733.923 545.125 731.826 547.938 730.202C553.501 726.99 560.761 725.451 566.89 723.535Q577.549 720.291 588.038 716.533Z"/>
	<path fill="#C06165" d="M265.648 290.205C270.515 288.822 275.911 286.812 280.979 286.558L281.408 286.934C277.774 287.916 267.496 289.31 265.325 291.671C265.009 292.015 265.102 292.257 265.097 292.702C266.242 294.248 268.355 294.954 269.978 295.939C272.277 297.334 274.55 299.282 277.061 300.251C290.045 305.26 304.328 306.943 317.967 309.156Q334.515 311.98 351.1 314.578C362.916 316.34 374.231 315.775 386.069 315.758C395.402 315.745 404.645 315.425 413.967 315.245C418.91 315.149 423.946 315.356 428.873 315.001C439.281 314.251 449.808 312.245 460.046 310.328C467.699 308.894 475.574 307.458 482.789 304.498C494.088 299.862 505.209 294.167 516.044 288.515C521.225 285.812 526.464 282.613 531.84 280.345C533.887 279.482 536.483 278.756 538.707 278.65C541.218 278.53 542.249 279.593 543.66 281.515C546.739 285.71 548.608 290.689 551.059 295.246C555.388 303.294 564.732 317.754 574.268 319.583C577.998 320.298 581.757 317.962 584.633 315.855C589.243 312.477 596.973 301.392 599.635 300.007L600.865 301.027C602.348 300.337 603.023 299.732 604.659 300.036C608.343 303.736 610.645 308.304 613.842 312.302C615.07 313.837 617.394 314.067 618.819 315.385C622.671 318.949 625.112 324.72 628.767 328.67C631.959 332.119 635.767 334.749 639.418 337.669C641.572 339.392 643.393 341.469 645.551 343.194C649.175 346.091 653.058 348.57 656.787 351.313C659.586 353.372 662.228 355.947 665.293 357.58C666.674 358.316 668.099 358.484 669.646 358.519C676.873 358.68 690.943 354.632 698.514 353.02C709.037 350.779 719.805 349.069 730.142 346.115C733.463 345.166 737.089 344.258 740.225 342.813C741.787 342.094 745.154 339.31 746.598 339.632C745.779 341.552 742.964 342.395 741.146 343.129C736.208 345.122 731.103 346.599 725.939 347.875C702.986 353.544 679.547 357.837 656.428 362.859C649.158 364.439 620.807 371.425 616.336 371.188C618.939 368.587 645.756 363.981 651.087 362.943L650.087 361.323L650.008 361.588C649.795 361.415 649.614 361.194 649.37 361.068C648.558 360.648 648.065 360.805 647.219 360.151C637.82 352.892 630.878 346.531 622.753 337.733C616.854 331.345 609.08 314.834 601.544 311.543C596.682 309.419 586.488 321.507 581.499 323.499C578.584 324.663 572.504 325.59 569.685 323.896C568.384 323.115 568.265 322.48 567.72 321.134C557.611 319.017 548.311 291.389 539.73 285.345C531.969 283.43 522.123 291.12 515.61 294.313C506.677 298.691 497.557 302.811 488.461 306.839C484.138 308.754 479.612 311.164 475.062 312.388C460.035 316.431 441.674 318.441 426.087 319.234C420.516 319.518 414.922 319.306 409.349 319.531C392.441 320.214 375.648 321.048 358.739 319.36C346.183 318.107 333.882 315.018 321.431 313.055C312.419 311.634 297.504 309.974 289.207 307.024C283.472 304.984 275.34 304.215 270.448 300.845C268.72 299.655 263.995 297.629 263.704 297.398C263.088 296.907 262.494 296.34 261.882 295.833C260.327 295.807 259.514 296.253 258.206 296.98C257.014 297.574 256.367 298.266 255.049 297.862L255.199 296.982C256.381 295.791 256.632 295.779 258.291 295.418C260.69 293.581 263.126 291.867 265.648 290.205Z"/>
	<path fill="#FEFEFE" d="M578.74 582.06C579.893 582.007 581.091 581.916 582.236 582.112C590.008 583.442 603.453 597.037 608.251 603.31C602.427 614.797 594.942 625.744 588.267 636.765C583.902 643.972 579.811 652.746 574.283 659.092C570.837 658.393 567.346 657.892 563.873 657.341C552.792 655.777 541.725 653.418 530.682 651.545C530.801 651.264 530.917 650.981 531.039 650.702C535.377 640.77 543.414 629.3 549.129 619.796C555.27 609.584 560.42 597.845 568.424 588.941C571.397 585.633 574.636 583.632 578.74 582.06Z"/>
	<path fill="#DF7A99" d="M545.269 639.849C549.856 631.022 555.158 622.463 560.153 613.857C563.541 608.02 566.739 601.531 570.72 596.102C572.219 594.057 573.731 592.392 575.862 590.989C577.858 590.565 580.289 592.46 581.911 593.512C587.756 597.307 594.368 601.408 599.636 605.937C595.777 610.387 593.059 616.252 590.06 621.333L573.05 650.119C570.341 649.76 566.018 649.744 563.631 648.606C556.734 648.382 549.205 646.414 542.414 645.093L545.269 639.849Z"/>
	<path fill="#FEFEFE" d="M648.857 563.141L654.491 562.772C660.749 569.559 665.123 579.395 669.497 587.53C671.939 583.753 677.114 573.652 681.386 572.335C682.221 572.078 682.385 572.378 683.099 572.743C683.834 574.221 684.089 574.782 683.589 576.46C681.458 583.609 660.847 611.771 654.86 616.227C649.451 620.252 642.281 622.484 636.272 625.572C632.532 627.541 628.995 629.873 625.224 631.816C617.907 619.275 610.125 600.224 601.312 589.753C597.946 585.754 594.063 582.572 589.961 579.359C609.423 573.92 628.944 566.668 648.857 563.141Z"/>
	<path fill="#DF7A99" d="M647.007 570.612C647.947 570.441 648.75 570.487 649.705 570.506C653.907 573.098 660.915 588.345 664.893 593.305C653.588 612.619 650.641 612.109 630.784 620.519C630.28 620.656 629.811 620.661 629.292 620.689C626.087 617.229 616.955 599.166 613.847 593.773C616.508 588.234 619.197 582.612 622.636 577.509C630.682 574.956 638.745 572.381 647.007 570.612Z"/>
	<path fill="#FEFEFE" d="M543.517 668.613C544.1 668.887 544.181 668.901 544.793 669.33C547.952 671.543 562.839 684.977 565.191 688.259C565.764 689.059 565.891 689.778 565.944 690.736C566.155 694.542 563.886 697.062 561.456 699.655L557.232 690.679C550.839 702.642 543.55 714.225 536.636 725.897C532.975 732.078 528.902 738.343 526.168 744.995L531.007 739.711L531.618 739.821C531.079 744.557 527.179 751.564 524.104 755.179C523.26 756.171 522.814 756.406 521.541 756.464C519.041 755.405 517.515 753.309 515.903 751.205Q509.454 743.638 502.699 736.343C499.423 732.849 495.488 729.395 492.723 725.516C491.809 724.234 491.089 722.799 490.875 721.226C489.972 714.578 504.095 695.068 508.33 689.066C504.68 690.448 496.328 694.645 492.589 693.587C491.364 693.241 491.295 692.651 490.89 691.595C491.014 690.243 491.18 689.201 491.865 688.008C492.776 686.421 494.047 685.304 495.65 684.443C500.795 681.681 506.958 680.134 512.521 678.319Q527.975 673.325 543.517 668.613Z"/>
	<path fill="#DF7A99" d="M539.465 677.456C543.987 679.884 547.876 684.397 551.661 687.862C546.394 697.74 540.273 707.332 534.514 716.935C529.903 724.624 525.606 734.236 519.272 740.534L515.15 736.059C509.321 730.047 503.902 723.663 497.899 717.813C501.307 711.948 505.285 706.343 508.9 700.595C512.127 695.465 515.025 690.136 518.076 684.9C524.628 681.677 532.522 679.893 539.465 677.456Z"/>
	<path fill="#FEFEFE" d="M654.785 672.979C652.817 669.153 640.064 649.645 640.691 647.707C641.244 645.995 642.995 644.263 644.251 642.987C649.919 637.224 656.733 632.222 662.819 626.872C668.766 621.644 674.791 614.893 681.443 610.661C681.503 610.623 681.561 610.583 681.62 610.544C684.756 615.466 695.83 636.505 697.081 641.425C697.642 643.632 697.56 646.2 697.084 648.416C696.301 652.061 689.114 662.146 689.808 664.15C690.573 666.362 691.161 667.704 690.084 669.926C685.486 679.413 679.284 688.392 673.967 697.494C669.465 705.201 665.588 713.295 660.856 720.863C659.6 722.873 657.908 725.927 655.953 727.278C648.269 732.583 631.689 736.121 622.378 740.075C623.938 742.665 625.979 745.194 625.245 748.385C624.965 749.599 624.451 750.889 623.355 751.558C621.917 751.721 620.975 751.416 619.804 750.538C615.103 747.015 610.5 738.812 607.966 733.587C608.414 728.196 610.771 700.826 613.446 698.07C614.566 697.711 615.457 697.432 616.589 697.999C617.252 698.331 617.879 698.947 618.434 699.437C623.902 698.958 653.527 688.462 658.552 685.745C662.923 680.038 654.722 678.708 654.785 672.979Z"/>
	<path fill="#C06165" d="M654.785 672.979C656.436 675.592 658.522 680.095 661.78 680.865C666.568 681.997 677.957 673.97 681.685 671.047C683.16 669.89 684.491 668.516 685.805 667.182C677.676 680.722 672.12 680.575 658.552 685.745C662.923 680.038 654.722 678.708 654.785 672.979Z"/>
	<path fill="#DF7A99" d="M678.343 620.82C681.656 623.27 689.791 643.107 692.172 648.265C686.689 659.853 683.579 663.282 672.617 669.543C670.02 671.026 667.45 672.797 664.67 673.909L664.064 673.287C659.63 664.145 653.533 655.846 648.784 646.854C658.974 639.148 669.453 629.96 678.343 620.82Z"/>
	<path fill="#DF7A99" d="M661.068 691.458L662.013 691.489C662.871 692.234 663.063 692.875 663.36 693.94C665.498 701.607 663.466 707.099 659.741 713.742C658.383 716.163 656.603 719.615 654.363 721.305C650.929 723.896 624.044 733.089 618.604 734.595C617.567 734.292 617.041 733.953 616.159 733.358C613.16 728.514 616.595 712.948 617.398 706.891Q639.439 699.757 661.068 691.458Z"/>
	<path fill="#C06165" d="M186.435 273.679C193.693 268.204 222.856 262.156 232.631 260.275C250.125 256.91 267.95 254.683 285.585 252.128L391.568 237.33C425.22 232.559 458.791 227.289 492.492 222.868C506.341 221.051 520.256 218.768 534.187 217.704C554.62 216.144 575.827 217.502 596.165 219.648C590.485 221.65 567.023 216.637 562.52 218.371C561.075 218.927 559.782 220.09 558.589 221.054C557.363 222.045 556.327 222.316 554.814 222.691C550.404 223.787 536.068 228.703 533.066 231.491C531.943 232.534 530.745 233.856 529.201 234.177C525.005 235.05 520.222 234.67 515.912 235.223C492.222 238.265 468.226 239.215 444.615 242.665C436.505 243.85 428.464 246.484 420.517 248.401C417.106 249.224 413.517 249.339 410.056 249.927C406.829 250.475 403.692 251.442 400.44 251.831C398.551 252.057 397.066 253.165 395.546 254.234C393.038 255.996 389.932 255.456 387.043 256.266C382.989 257.403 379.152 259.266 375.098 260.422C369.354 262.061 346.077 265.889 343.295 270.24C344.101 270.362 344.546 270.23 345.328 270.048C347.159 271.538 348.727 273.552 351.259 273.286C355.155 272.876 378.083 269.699 380.41 268.803C381.226 268.489 381.848 267.746 382.439 267.129L383.348 267.292L383.939 267.39C384.467 267.482 384.986 267.623 385.509 267.739C388.645 268.429 408.898 264.487 413.311 263.794L479.658 253.415C511.354 248.718 542.885 241.226 575.185 243.301C580.151 243.621 585.242 243.684 590.056 245.117C585.104 245.375 579.542 244.027 574.463 243.838C562.066 243.379 549.414 243.894 537.074 245.138C517.987 247.063 498.967 250.783 480.024 253.796L376.08 270.06C356.808 273.073 337.419 276.918 318.027 278.924C300.321 282.643 282.443 283.391 265.238 289.458C264.339 289.734 263.218 290.255 262.286 290.175L262.553 289.648C269.872 286.583 277.763 285.088 285.316 282.678L286.317 283.601C287.736 283.408 287.09 282.337 288.405 281.621C289.389 281.084 289.885 280.855 290.903 281.263L290.918 282.446C293.301 282.7 296.865 280.931 299.253 280.297C299.272 281.121 299.151 280.764 299.552 281.389C304.866 280.171 310.322 279.663 315.698 278.729C316.077 278.647 316.435 278.446 316.734 278.2C318.52 276.727 321.326 277.119 322.901 275.395L322.677 274.658C321.331 274.925 320.022 275.256 318.699 275.616L318.532 275.054L320.013 273.859C320.881 273.829 320.454 273.916 321.291 273.581L320.911 272.926C318.274 273.031 317.618 272.298 315.698 270.704C308.382 270.881 300.278 272.705 293.105 274.21C288.856 275.101 283.834 271.787 279.319 271.763C275.896 271.745 272.567 273.225 269.167 273.497C262.574 274.025 256.138 272.489 249.629 272.403C244.063 272.329 238.684 273.355 233.082 272.715C227.708 272.101 221.861 270.771 216.591 269.517C213.825 268.859 209.728 267.175 206.987 267.214C206.091 267.226 205.106 267.669 204.28 267.975C203.253 268.356 202.313 268.736 201.225 268.906C200.223 269.062 199.667 269.302 198.697 269.66C198.386 269.774 198.062 269.855 197.759 269.988C194.295 271.505 190.651 273.008 187.013 274.077L186.435 273.679Z"/>
	<defs>
		<linearGradient id="gradient_3" gradientUnits="userSpaceOnUse" x1="450.15073" y1="416.31659" x2="454.19394" y2="282.43878">
			<stop offset="0" stop-color="#632E2C"/>
			<stop offset="1" stop-color="#AF575F"/>
		</linearGradient>
	</defs>
	<path fill="url(#gradient_3)" d="M258.206 296.98C259.514 296.253 260.327 295.807 261.882 295.833C262.494 296.34 263.088 296.907 263.704 297.398C263.995 297.629 268.72 299.655 270.448 300.845C275.34 304.215 283.472 304.984 289.207 307.024C297.504 309.974 312.419 311.634 321.431 313.055C333.882 315.018 346.183 318.107 358.739 319.36C375.648 321.048 392.441 320.214 409.349 319.531C414.922 319.306 420.516 319.518 426.087 319.234C441.674 318.441 460.035 316.431 475.062 312.388C479.612 311.164 484.138 308.754 488.461 306.839C497.557 302.811 506.677 298.691 515.61 294.313C522.123 291.12 531.969 283.43 539.73 285.345C548.311 291.389 557.611 319.017 567.72 321.134C568.265 322.48 568.384 323.115 569.685 323.896C572.504 325.59 578.584 324.663 581.499 323.499C586.488 321.507 596.682 309.419 601.544 311.543C609.08 314.834 616.854 331.345 622.753 337.733C630.878 346.531 637.82 352.892 647.219 360.151C648.065 360.805 648.558 360.648 649.37 361.068C649.614 361.194 649.795 361.415 650.008 361.588L650.087 361.323L651.087 362.943C645.756 363.981 618.939 368.587 616.336 371.188C610.313 373.267 603.213 374.126 596.941 375.459L551.885 384.981L453.483 405.933C438.672 408.998 423.773 413.036 408.781 415.058Q405.444 415.525 402.08 415.727Q398.716 415.93 395.347 415.866Q391.978 415.802 388.624 415.473Q385.27 415.144 381.953 414.552C375.758 413.416 370.826 411.537 365.765 407.77C354.502 399.388 343.046 386.779 332.576 377.07L282.286 330.228C274.99 323.469 259.836 311.059 254.806 303.448C253.771 301.882 252.22 299.253 252.873 297.295C253.897 294.225 259.561 291.74 262.286 290.175C263.218 290.255 264.339 289.734 265.238 289.458L265.648 290.205C263.126 291.867 260.69 293.581 258.291 295.418C256.632 295.779 256.381 295.791 255.199 296.982L255.049 297.862C256.367 298.266 257.014 297.574 258.206 296.98Z"/>
</svg>
