<?xml version="1.0" encoding="utf-8"?>
<svg xmlns="http://www.w3.org/2000/svg" width="1024" height="1024">
  <path fill="#F0B7C0" d="M172.469 752.654C177.105 753.629 181.644 755.581 186.087 757.203C193.766 760.008 201.403 762.826 208.845 766.222C215.062 769.059 221.097 772.359 227.361 775.069C236.701 779.11 246.363 782.476 255.788 786.328C273.905 793.733 291.872 801.582 309.849 809.32L556.473 912.963C567.046 917.451 577.229 922.857 587.878 927.175C595.576 930.297 603.487 933.128 611.271 936.047C613.968 937.059 616.86 937.781 619.493 938.925C622.2 940.102 623.73 942.746 626.839 943.066C632.312 948.103 637.193 949.447 644.387 950.182C642.532 950.389 640.577 950.676 638.712 950.565C631.443 950.132 566.404 920.647 556.698 916.551L346.567 827.859L222.24 776.031C208.628 770.33 194.575 765.292 181.144 759.215C177.799 757.702 174.914 755.356 172.469 752.654Z"/>
  <path fill="#C06165" d="M916.658 127.423C922.483 129.112 926.182 132.118 929.154 137.511C940.987 158.982 935.711 203.56 932.583 227.648C932.136 231.726 931.641 235.804 931.247 239.887C927.837 239.687 924.116 239.753 920.784 239.046C912.845 239.053 904.688 237.948 896.749 237.317C883.586 236.272 870.372 235.406 857.243 233.999C860.982 204.143 874.873 158.949 894.733 136.134C897.718 133.504 901.172 131.267 904.621 129.295C908.733 128.163 912.414 127.631 916.658 127.423Z"/>
  <defs>
    <linearGradient id="gradient_0" gradientUnits="userSpaceOnUse" x1="138.66982" y1="676.46442" x2="981.9975" y2="361.21689">
      <stop offset="0" stop-color="#AF626F"/>
      <stop offset="1" stop-color="#FF919E"/>
    </linearGradient>
  </defs>
  <path fill="url(#gradient_0)" d="M 441.262 101.849 C 447.533 101.436 454.447 101.594 460.666 102.492 C 480.146 102.593 499.81 104.321 519.269 105.408 L 599.566 109.583 L 796.404 120.422 L 879.91 124.867 C 888.403 125.353 896.891 125.917 905.374 126.56 C 909.077 126.82 913.033 126.64 916.658 127.423 C 912.414 127.631 908.733 128.163 904.621 129.295 C 901.172 131.267 897.718 133.504 894.733 136.134 C 874.873 158.949 860.982 204.143 857.243 233.999 C 855.475 241.54 854.191 249.204 852.542 256.774 L 836.801 329.749 C 834.15 342.033 831.111 354.229 828.395 366.498 C 826.22 376.322 824.41 386.224 822.101 396.02 C 819.186 408.381 815.828 420.637 812.964 433.011 C 805.398 465.698 798.266 498.562 789.777 531.021 C 788.181 538.659 786.477 546.273 784.664 553.862 L 783.291 559.952 C 768.226 619.541 755.133 679.599 740.518 739.301 C 736.338 756.377 732.338 773.468 727.942 790.495 C 725.624 799.473 723.472 808.819 720.247 817.514 C 712.711 847.831 690.324 914.042 668.284 935.09 C 662.685 941.8 654.48 949.257 645.347 950.109 C 645.027 950.139 644.707 950.158 644.387 950.182 C 637.193 949.447 632.312 948.103 626.839 943.066 C 623.73 942.746 622.2 940.102 619.493 938.925 C 616.86 937.781 613.968 937.059 611.271 936.047 C 603.487 933.128 595.576 930.297 587.878 927.175 C 577.229 922.857 567.046 917.451 556.473 912.963 L 309.849 809.32 C 291.872 801.582 273.905 793.733 255.788 786.328 C 246.363 782.476 236.701 779.11 227.361 775.069 C 221.097 772.359 215.062 769.059 208.845 766.222 C 201.403 762.826 193.766 760.008 186.087 757.203 C 181.644 755.581 177.105 753.629 172.469 752.654 C 164.804 745.942 159.577 735.72 157.218 725.942 C 153.787 713.469 154.061 700.893 155.346 688.137 C 160.922 690.616 166.939 692.466 172.688 694.518 L 204.008 705.67 C 210.571 707.979 217.436 710.237 223.706 713.259 C 229.813 707.282 234.566 699.599 239.352 692.547 C 254.561 666.988 264.036 638.335 272.113 609.809 C 274.725 600.584 279.565 581.752 279.565 581.752 C 279.565 581.752 321.234 427.893 324.756 412.421 L 358.985 262.359 L 372.094 206.972 C 376.71 187.957 380.995 167.974 389.333 150.184 C 389.774 148.877 390.313 147.582 390.853 146.312 C 397.102 131.594 408.824 112.972 424.39 106.738 C 429.44 103.679 435.432 102.317 441.262 101.849 Z"/>
  <path fill="#C06165" d="M 226.933 381.437 C 229.684 380.414 236.251 383.067 239.103 383.872 C 247.346 393.12 253.59 405.397 260.165 415.911 C 270.343 432.185 280.869 448.325 290.733 464.784 C 293.972 470.187 314.358 501.776 317.426 506.817 C 323.151 516.225 329.033 525.522 333.942 535.394 C 334.151 538.125 333.874 540.479 333.444 543.165 C 325.149 554.671 307.58 559.006 294.846 564.354 C 291.713 565.67 282.482 569.398 282.482 569.398 C 258.768 579.084 235.262 589.833 211.909 600.379 C 201.932 604.885 191.677 611.129 181.221 614.304 C 178.55 615.115 175.852 614.799 173.281 613.743 C 173.115 613.675 172.958 613.589 172.797 613.512 C 171.371 610.858 185.538 556.104 187.27 548.598 C 158.126 539.216 129.309 528.715 100.251 519.041 C 102.824 504.845 106.803 490.523 110.323 476.528 C 113.255 464.871 115.817 453.17 118.597 441.485 C 120.222 434.656 122.626 427.878 123.777 420.966 C 124.868 420.621 125.558 420.708 126.647 420.962 C 143.786 424.963 160.713 430.515 177.735 435.05 C 186.16 437.268 194.571 439.54 202.967 441.868 C 205.948 442.663 209.705 443.067 212.417 444.419 C 212.737 438.941 214.741 432.807 216.003 427.431 C 219.591 412.153 224.086 396.857 226.933 381.437 Z" style="transform-origin: 217.132px 497.985px;"/>
  <path fill="#DF7A99" d="M783.291 559.952C783.175 559.037 783.301 559.422 782.931 558.658C782.563 557.899 782.278 557.149 781.991 556.356C782.535 555.012 783.487 554.575 784.664 553.862L783.291 559.952Z"/>
  <path fill="#DF7A99" d="M239.352 692.547C238.636 696.49 235.633 700.642 233.051 703.615C232.59 704.145 232.155 704.707 231.71 705.25C232.494 708.76 234.244 711.697 235.019 715.859C235.637 716.526 235.875 716.785 236.786 716.905C237.025 716.936 237.268 716.907 237.509 716.908C237.599 717.02 237.674 717.145 237.778 717.244C238.714 718.129 240.676 718.721 241.938 718.61C242.403 718.57 242.861 718.465 243.323 718.395C244.221 718.258 245.026 718.302 245.875 718.686C247.897 719.6 249.751 721.348 251.831 722.382C255.105 724.01 258.723 725.064 261.896 726.786C261.818 727.672 261.884 727.292 261.741 727.934L262.504 728.273C261.711 728.71 261.61 728.493 260.734 728.235C256.126 726.876 251.546 724.378 247.133 722.458C239.919 719.319 232.34 716.256 224.862 713.822C224.121 713.581 224.417 713.703 223.706 713.259C229.813 707.282 234.566 699.599 239.352 692.547Z"/>
  <path fill="#FDAFBB" d="M424.39 106.738C429.44 103.679 435.432 102.317 441.262 101.849C450.994 103.937 460.88 104.625 470.774 105.522L503.244 108.36C513.704 109.171 528.877 111.114 539.027 110.296C540.459 111.239 541.158 111.662 542.89 111.584C543.374 111.563 543.857 111.516 544.342 111.518C545.537 111.524 546.717 111.594 547.616 112.448L547.308 113.068C543.651 114.022 538.077 112.228 534.386 111.427C534.858 112.193 534.813 111.804 534.647 112.573C532.554 112.763 529.303 113.484 527.324 112.948C525.473 112.448 524.559 113.145 522.98 111.84C522.713 111.866 522.447 111.897 522.18 111.918C517.841 112.258 472.883 109.594 471.799 109.1C471.438 108.936 471.199 108.582 470.9 108.323L470.919 107.611C471.671 107.333 472.351 107.135 473.143 106.974C473.409 106.92 473.676 106.872 473.943 106.822C471.321 105.502 439.335 105.369 432.931 105.129C430.094 105.022 427.856 106.733 425.15 106.751C424.896 106.753 424.643 106.743 424.39 106.738Z"/>
  <path fill="#C06165" d="M672.52 723.764C671.851 724.253 671.217 724.689 670.44 724.995C665.882 726.792 656.177 723.913 651.418 722.632C645.723 721.1 640.365 718.644 634.739 716.94L493.858 673.066C488.008 671.25 481.862 670.334 475.942 668.741C466.402 666.174 456.833 662.909 447.404 659.917C442.95 658.504 438.008 657.32 433.785 655.352L433.677 654.81C434.253 654.262 435.473 654.038 436.239 653.781C436.038 652.988 434.421 652.418 433.897 651.07L433.612 651.329L433.681 650.587L432.778 650.769L432.19 652.527C431.883 652.032 431.574 651.543 431.231 651.072C430.744 650.401 430.374 649.963 429.548 649.7C428.226 649.281 426.718 649.481 425.337 649.053L394.087 639.322C387.994 637.444 380.666 634.042 374.589 633.007C365.402 631.443 354.212 626.945 345.092 624.036C335.984 621.131 326.821 618.884 317.869 615.367C317.599 613.246 319.054 609.765 319.408 607.438L319.509 606.744C320.575 606.338 321.031 606.312 322.194 606.506C329.722 607.761 337.771 611.023 345.089 613.303C348.465 614.355 351.724 614.846 354.967 616.287L355.149 617.018C343.587 614.04 332.016 610.544 320.601 607.034L318.684 614.625C344.101 623.214 369.954 630.522 395.62 638.323L526.305 678L614.776 705.292C633.978 711.42 653.194 718.102 672.52 723.764Z"/>
  <path fill="#C06165" d="M398.852 307.309Q539.424 327.523 679.729 349.505L738.26 358.502C745.184 359.526 754.234 361.87 761.04 361.499C761.108 362.302 761.136 362.972 761.074 363.781C760.839 363.847 760.606 363.918 760.37 363.982C758.475 364.494 756.715 364.584 754.767 364.397C737.918 362.773 721.504 359.272 704.793 356.911C682.357 353.741 659.716 351.638 637.346 348.059C622.72 345.719 608.248 342.456 593.582 340.212C585.043 338.906 576.399 338.28 567.836 337.112C560.35 336.09 552.961 334.542 545.494 333.413C540.663 332.683 530.818 332.195 526.759 329.945L529.713 329.274L528.554 328.525C527.223 328.571 526.398 328.583 525.13 328.084L524.519 327.839C523.133 328.292 521.756 328.322 520.313 328.406C521.866 329.136 523.725 329.076 525.431 329.203C525.286 329.259 525.148 329.34 524.996 329.371C523.647 329.645 521.742 329.529 520.37 329.352C508.936 327.875 497.577 325.726 486.11 324.326L436.677 318.005C427.557 316.82 418.261 315.945 409.216 314.352C406.699 313.909 403.764 313.355 401.562 312.039C399.732 310.945 399.359 309.225 398.852 307.309Z"/>
  <path fill="#C06165" d="M695.533 633.893C695.079 634.484 694.67 634.869 693.985 635.214C691.193 636.618 684.35 635.258 681.301 634.653C674.539 633.313 667.918 630.995 661.263 629.18L630.26 620.907L597.831 612.256C594.176 611.285 590.418 610.676 586.784 609.627C584.935 609.093 582.528 608.492 581.557 606.732C581.845 605.895 582.082 605.037 582.561 604.285C582.631 604.173 582.717 604.072 582.796 603.966C579.614 602.297 575.806 603.315 572.52 600.902C572.386 600.804 572.26 600.696 572.129 600.593L570.402 601.143L569.148 599.66L568.038 599.689C567.537 600.23 567.111 600.71 566.478 601.102C566.348 601.183 566.21 601.25 566.076 601.324C569.137 601.899 573.898 602.733 576.443 604.556L576.424 605.362C569.736 603.546 562.671 602.372 555.901 600.665L495.291 584.835C470.637 578.317 446.349 570.067 421.44 564.445C417.905 563.647 414.27 563.564 410.737 562.843C408.468 562.38 405.815 560.55 403.665 560.675C402.747 560.728 402.471 560.745 401.637 560.412L402.62 559.271L401.768 558.641L402.591 558.664C400.455 557.926 398.359 557.147 396.274 556.275C397.242 555.695 399.637 556.068 400.839 556.108L400.629 556.147L399.92 554.59L400.089 554.733C392.908 553.307 381.2 548.905 374.645 549.068L374.534 549.349C376.534 550.106 378.645 550.741 380.402 551.984C376.972 552.635 361.718 548.333 358.467 546.261C359.358 544.636 365.596 547.503 368.721 546.322C367.955 546.036 368.291 546.109 367.491 546.015C366.366 545.884 365.44 545.824 364.382 545.371C363.574 545.024 362.907 544.807 362.049 544.607L361.231 545.112C359.138 544.423 348.365 540.979 347.735 540.556C346.985 538.189 347.338 536.339 348.058 534.009L348.688 533.996C348.444 535.832 348.112 537.696 347.97 539.541C378.309 548.725 409.39 555.898 440.014 564.127L613.17 611.12L669.123 626.39C675.74 628.173 690.06 630.999 695.533 633.893Z"/>
  <path fill="#C06165" d="M380.404 384.751C397.015 387.033 413.621 390.963 430.134 393.965Q491.747 405.331 553.233 417.362Q614.71 428.999 675.996 441.608C696.689 445.737 717.469 449.45 738.022 454.263L737.966 454.846C737.004 455.858 736.324 456.156 734.93 456.382C727.298 457.618 708.676 452.571 700.174 450.95L619.166 434.674C604.222 431.549 589.219 428.884 574.255 425.914C564.185 423.916 554.189 421.59 544.081 419.763C533.366 417.826 522.536 416.489 511.788 414.735C494.072 411.843 476.383 408.47 458.688 405.402C443.572 402.782 428.58 399.687 413.49 396.992C404.376 395.364 394.09 394.672 385.406 391.548C384.303 391.151 383.355 390.509 382.456 389.762C380.743 388.338 380.609 386.83 380.404 384.751Z"/>
  <path fill="#C06165" d="M365.156 461.749C382.306 465.225 399.32 469.602 416.37 473.548L492.74 490.926Q548.137 503.53 603.374 516.822C619.731 520.675 636.212 524.117 652.504 528.226C674.535 533.367 696.488 539.049 718.593 543.849L719.481 544.475L719.528 546.037C718.823 546.888 718.7 547.098 717.56 547.303C713.103 548.103 706.772 546.307 702.285 545.384C695.72 544.035 689.495 541.756 682.984 540.282L602.255 521.964C592.541 519.821 545.436 510.417 539.767 506.73L540.096 506.096C538.601 504.895 528.772 504.787 526.111 504.376C521.352 503.64 516.641 502.309 511.91 501.358Q485.764 496.087 459.771 490.106C457.375 489.542 455.076 488.641 452.676 488.094C443.585 486.022 434.292 484.758 425.227 482.615C418.346 480.988 411.668 478.472 404.925 476.365C400.503 474.983 395.653 473.993 391.477 472.045C391.324 472.08 391.174 472.129 391.019 472.15C389.773 472.32 372.313 469.913 370.793 469.494C370.135 469.312 369.566 468.98 369.025 468.574C368.851 468.444 368.688 468.299 368.516 468.165C366.537 466.629 364.301 464.725 363.56 462.251L365.156 461.749Z"/>
  <path fill="#F0B7C0" d="M441.262 101.849C447.533 101.436 454.447 101.594 460.666 102.492C480.146 102.593 499.81 104.321 519.269 105.408L599.566 109.583L796.404 120.422L879.91 124.867Q892.65 125.596 905.374 126.56C909.077 126.82 913.033 126.64 916.658 127.423C912.414 127.631 908.733 128.163 904.621 129.295C901.172 131.267 897.718 133.504 894.733 136.134C894.124 136.062 894.402 136.189 893.934 135.681C894.881 134.832 895.787 133.993 896.659 133.064C894.743 129.939 876.986 131.116 873.561 128.448C869.358 129.14 864.782 128.766 860.467 129.275L863.775 129.315C860.931 129.894 853.052 131.121 850.409 130.117C849.596 129.808 848.891 128.965 848.086 128.572C846.681 127.888 844.168 128.052 842.603 127.948C827.712 126.963 812.796 126.813 797.908 125.603Q786.737 124.694 775.591 123.522C772.222 123.149 768.808 122.31 765.444 122.119C759.592 121.786 753.727 123.789 747.839 123.681C739.509 123.528 731.395 120.838 723.084 120.321C719.674 120.109 716.172 120.012 712.76 120.234C711.219 120.334 709.243 120.876 707.755 120.783C707.225 120.75 706.336 119.862 705.835 119.875C703.095 119.945 698.602 121.957 694.738 122.085C693.533 122.124 692.675 122.093 691.599 121.482C690.056 120.606 688.208 119.22 686.407 119.075C674.427 118.114 662.22 118.88 650.245 118.049C643.544 117.583 636.646 117.054 630.027 115.957C627.06 115.465 624.116 114.368 621.155 114.009C619.897 113.856 618.959 113.79 617.938 114.595L618.811 115.942C616.885 116.054 614.537 114.407 612.515 114.032C612.896 114.605 613.166 115.095 613.456 115.711L613.001 116.177C611.439 116.155 611.013 115.289 609.76 114.637C608.653 114.061 607.969 114.015 606.778 114.272C607.012 114.315 607.257 114.32 607.481 114.401C608.548 114.785 609.004 115.728 609.476 116.664L609.024 117.172C606.63 116.808 604.006 116.477 602.515 114.491L602.776 114.247L604.672 114.314L604.915 113.912C602.2 113.196 599.508 114.245 596.745 114.031C594.396 113.849 592.088 112.51 589.608 112.23C582.918 111.474 575.929 111.688 569.194 111.664C569.675 112.342 569.85 112.577 570.006 113.417C565.839 113.681 562.476 109.859 556.199 110.758C556.054 110.779 555.909 110.804 555.764 110.826L555.806 110.774C556.63 111.384 557.482 111.943 558.337 112.508L558.382 113.375C556.172 113.914 553.331 112.999 551.298 112.077L550.912 111.042C551.874 110.712 553.462 111.436 554.465 111.708L554.103 110.987C549.834 109.937 543.54 110.458 539.027 110.296C528.877 111.114 513.704 109.171 503.244 108.36L470.774 105.522C460.88 104.625 450.994 103.937 441.262 101.849Z"/>
  <path fill="#DF7A99" d="M157.218 725.942C157.376 726.08 157.55 726.202 157.69 726.357C161.349 730.394 162.691 742.995 168.894 746.749C172.075 748.674 176.771 748.891 180.256 750.377L225.061 769.185C232.296 772.275 239.431 775.771 246.697 778.739C251.432 780.673 256.423 781.918 261.161 783.902L446.318 861.716L530.697 897.636C539.232 901.361 547.949 904.639 556.446 908.469C575.015 916.839 599.537 930.544 619.459 933.106L618.268 928.491L617.641 929.267L618.102 927.667L618.462 927.674L618.696 928.434C620.351 933.734 623.261 938.827 626.839 943.066C623.73 942.746 622.2 940.102 619.493 938.925C616.86 937.781 613.968 937.059 611.271 936.047C603.487 933.128 595.576 930.297 587.878 927.175C577.229 922.857 567.046 917.451 556.473 912.963L309.849 809.32C291.872 801.582 273.905 793.733 255.788 786.328C246.363 782.476 236.701 779.11 227.361 775.069C221.097 772.359 215.062 769.059 208.845 766.222C201.403 762.826 193.766 760.008 186.087 757.203C181.644 755.581 177.105 753.629 172.469 752.654C164.804 745.942 159.577 735.72 157.218 725.942Z"/>
  <path fill="#FEFEFE" d="M348.688 533.996L349.436 532.224C350.809 531.708 352.289 532.21 353.709 532.521C368.999 535.869 384.221 540.458 399.404 544.312Q459.528 559.396 519.291 575.855L697.861 623.45C697.172 626.961 696.446 630.433 695.533 633.893C690.06 630.999 675.74 628.173 669.123 626.39L613.17 611.12L440.014 564.127C409.39 555.898 378.309 548.725 347.97 539.541C348.112 537.696 348.444 535.832 348.688 533.996Z"/>
  <path fill="#FEFEFE" d="M320.601 607.034C332.016 610.544 343.587 614.04 355.149 617.018C367.894 621.677 381.329 624.916 394.364 628.677L454.475 646.577L675.183 713.172C674.444 716.435 673.97 720.777 672.52 723.764C653.194 718.102 633.978 711.42 614.776 705.292L526.305 678L395.62 638.323C369.954 630.522 344.101 623.214 318.684 614.625L320.601 607.034Z"/>
  <path fill="#44393F" d="M 324.066 537.041 C 327.157 538.455 330.909 536.422 333.941 535.394 C 334.15 538.125 333.873 540.479 333.443 543.165 C 325.148 554.671 307.579 559.006 294.845 564.354 C 291.712 565.67 282.481 569.398 282.481 569.398 C 258.767 579.084 235.261 589.833 211.908 600.379 C 201.931 604.885 191.676 611.129 181.22 614.304 C 178.549 615.115 175.851 614.799 173.28 613.743 C 173.114 613.675 172.957 613.589 172.796 613.512 C 176.054 611.293 180.321 610.055 183.922 608.392 C 194.85 603.347 205.681 598.18 216.676 593.267 C 242.643 581.528 268.542 569.641 294.375 557.607 C 301.585 554.303 317.167 548.79 322.236 543.598 C 324.079 541.71 324.124 539.535 324.066 537.041 Z" style="transform-origin: 253.404px 575.078px;"/>
  <path fill="#57585C" d="M 227.007 381.539 C 229.758 380.516 236.325 383.169 239.177 383.974 C 247.42 393.222 253.664 405.499 260.239 416.013 C 270.417 432.287 280.943 448.427 290.807 464.886 C 294.046 470.289 314.432 501.878 317.5 506.919 C 323.225 516.327 329.107 525.624 334.016 535.496 C 330.984 536.524 327.232 538.557 324.141 537.143 C 320.949 533.959 308.371 510.985 304.727 504.952 C 288.804 478.829 272.692 452.823 256.39 426.934 C 247.918 413.289 236.948 393.36 227.007 381.539 Z" style="transform-origin: 280.512px 459.466px;"/>
  <path fill="#FEFEFE" d="M365.45 452.708L721.606 533.98C720.619 537.24 719.781 540.666 718.593 543.849C696.488 539.049 674.535 533.367 652.504 528.226C636.212 524.117 619.731 520.675 603.374 516.822Q548.137 503.53 492.74 490.926L416.37 473.548C399.32 469.602 382.306 465.225 365.156 461.749L363.88 461.159C363.421 458.435 364.687 455.331 365.45 452.708Z"/>
  <path fill="#FEFEFE" d="M382.398 376.268C398.565 377.989 417.295 382.414 433.561 385.355Q489.541 395.514 545.397 406.338Q617.729 419.696 689.881 433.998C706.884 437.37 724.097 440.384 740.994 444.206C740.431 446.725 739.789 452.536 738.022 454.263C717.469 449.45 696.689 445.737 675.996 441.608Q614.71 428.999 553.233 417.362Q491.747 405.331 430.134 393.965C413.621 390.963 397.015 387.033 380.404 384.751C380.709 381.796 381.537 379.098 382.398 376.268Z"/>
  <path fill="#FEFEFE" d="M399.782 298.596Q496.084 311.723 592.171 326.336L648.875 334.756C657.066 335.987 666.06 338.364 674.278 338.513C687.189 341.088 700.429 342.673 713.456 344.603C729.911 347.04 746.343 349.724 762.859 351.713C762.214 354.9 761.287 358.267 761.04 361.499C754.234 361.87 745.184 359.526 738.26 358.502L679.729 349.505Q539.424 327.522 398.852 307.309L397.706 306.882C397.294 304.463 398.963 300.941 399.782 298.596Z"/>
  <path fill="#FEFEFE" d="M416.835 222.396C440.456 223.892 464.142 227.305 487.71 229.703L644.173 246.213C652.92 247.824 662.052 248.188 670.893 249.256Q711.695 253.929 752.541 258.183C762.623 259.291 773.437 259.721 783.362 261.706L781.965 267.888Q781.309 269.629 780.705 271.388L532.71 243.875L456.012 235.74C442.286 234.262 428.075 233.395 414.533 230.772C415.214 227.96 416.049 225.181 416.835 222.396Z"/>
</svg>