<?xml version="1.0" encoding="utf-8" ?>
<svg xmlns="http://www.w3.org/2000/svg" xmlns:xlink="http://www.w3.org/1999/xlink" width="1024" height="1024">
	
	<path fill="#AFAFBE" d="M840.036 200.705C852.703 211.031 866.755 228.827 877.047 241.815Q879.637 245.062 882.169 248.354Q884.7 251.647 887.173 254.984Q889.645 258.321 892.057 261.702Q894.47 265.083 896.821 268.507Q899.172 271.93 901.462 275.395Q903.752 278.86 905.979 282.366Q908.207 285.871 910.371 289.416Q912.535 292.961 914.636 296.544Q916.736 300.127 918.772 303.747Q920.808 307.367 922.779 311.022Q924.75 314.678 926.656 318.369Q928.561 322.059 930.4 325.783Q932.239 329.507 934.011 333.263Q935.783 337.02 937.488 340.807Q939.192 344.594 940.829 348.412Q942.465 352.229 944.033 356.075Q945.601 359.921 947.1 363.794Q948.599 367.667 950.028 371.567Q951.457 375.466 952.817 379.391Q954.176 383.316 955.465 387.264Q956.754 391.212 957.972 395.183Q959.19 399.153 960.337 403.145Q961.484 407.137 962.559 411.148Q963.634 415.16 964.638 419.19Q965.641 423.221 966.572 427.268Q967.503 431.316 968.361 435.379Q969.22 439.443 970.005 443.521Q970.791 447.6 971.504 451.691Q972.216 455.783 972.855 459.887Q973.495 463.991 974.06 468.105Q974.626 472.22 975.118 476.344Q975.61 480.468 976.028 484.6Q976.642 490.086 977.12 495.585Q977.599 501.084 977.94 506.593Q978.282 512.102 978.487 517.618Q978.692 523.134 978.761 528.654Q978.829 534.173 978.761 539.693Q978.692 545.212 978.487 550.728Q978.282 556.244 977.94 561.754Q977.598 567.263 977.12 572.762Q976.642 578.261 976.028 583.747Q975.413 589.232 974.663 594.701Q973.913 600.169 973.028 605.618Q972.142 611.066 971.122 616.491Q970.102 621.916 968.948 627.314Q967.794 632.711 966.506 638.079Q965.218 643.447 963.798 648.781Q962.378 654.115 960.826 659.412Q959.274 664.709 957.591 669.966Q955.909 675.223 954.096 680.437Q952.284 685.651 950.342 690.818Q948.401 695.985 946.333 701.103Q944.264 706.221 942.069 711.285Q939.874 716.35 937.555 721.359Q935.235 726.368 932.792 731.318Q930.349 736.267 927.784 741.155Q925.219 746.043 922.534 750.866Q919.849 755.688 917.045 760.443Q914.241 765.198 911.32 769.881Q908.399 774.565 905.363 779.175Q902.327 783.785 899.177 788.318Q896.028 792.851 892.767 797.305Q889.507 801.759 886.137 806.13Q882.766 810.502 879.289 814.789Q875.795 819.03 872.198 823.183Q868.601 827.337 864.902 831.4Q861.204 835.463 857.406 839.434Q853.609 843.405 849.714 847.282Q845.82 851.158 841.831 854.937Q837.843 858.716 833.762 862.396Q829.682 866.076 825.512 869.653Q821.342 873.231 817.085 876.706Q812.828 880.18 808.487 883.548Q804.146 886.916 799.723 890.176Q795.3 893.436 790.798 896.587Q786.296 899.737 781.718 902.775Q777.14 905.813 772.488 908.738Q767.836 911.662 763.114 914.471Q758.392 917.28 753.602 919.972Q748.811 922.664 743.956 925.236Q739.101 927.809 734.184 930.262Q729.268 932.714 724.292 935.045Q719.316 937.375 714.284 939.583Q709.252 941.79 704.168 943.872Q699.083 945.955 693.948 947.911Q688.814 949.868 683.633 951.697Q678.452 953.527 673.227 955.228Q668.003 956.929 662.738 958.501Q657.473 960.073 652.171 961.515Q646.869 962.956 641.533 964.267Q636.197 965.577 630.83 966.756Q625.463 967.935 620.069 968.981Q614.675 970.027 609.257 970.94Q603.838 971.853 598.399 972.632Q592.96 973.411 587.504 974.055Q582.047 974.7 576.576 975.21Q570.957 975.78 565.326 976.211Q559.694 976.641 554.054 976.932Q548.414 977.223 542.768 977.375Q537.122 977.526 531.474 977.537Q525.826 977.548 520.18 977.419Q514.533 977.29 508.892 977.022Q503.251 976.753 497.617 976.345Q491.984 975.936 486.363 975.389Q480.742 974.841 475.136 974.154Q469.53 973.467 463.943 972.641Q458.356 971.816 452.791 970.852Q447.226 969.888 441.687 968.787Q436.147 967.685 430.637 966.447Q425.126 965.208 419.648 963.834Q414.17 962.459 408.728 960.949Q403.286 959.44 397.882 957.795Q392.479 956.151 387.118 954.373Q381.758 952.596 376.443 950.686Q371.127 948.776 365.861 946.735Q360.595 944.694 355.381 942.523Q350.167 940.352 345.009 938.052Q339.85 935.753 334.75 933.327Q329.65 930.9 324.612 928.348Q319.574 925.796 314.6 923.119Q309.627 920.443 304.721 917.644Q299.815 914.846 294.981 911.926Q290.146 909.007 285.385 905.969Q280.624 902.93 275.94 899.775Q271.255 896.62 266.651 893.349Q262.046 890.079 257.524 886.695Q253.002 883.312 248.565 879.817Q244.128 876.322 239.779 872.719C238.64 871.774 237.507 870.79 236.466 869.738C243.036 872.063 249.572 878.204 255.19 882.272Q263.451 888.242 271.937 893.887Q283.047 901.266 294.702 907.75Q306.358 914.233 318.487 919.779Q323.725 922.139 329.02 924.37Q334.314 926.601 339.662 928.701Q345.01 930.801 350.408 932.768Q355.806 934.735 361.251 936.569Q366.696 938.403 372.184 940.103Q377.672 941.802 383.201 943.366Q388.729 944.929 394.294 946.357Q399.86 947.784 405.459 949.073Q411.057 950.363 416.686 951.514Q422.315 952.666 427.97 953.678Q433.626 954.691 439.304 955.564Q444.983 956.437 450.681 957.17Q456.38 957.903 462.095 958.495Q467.809 959.087 473.537 959.539Q479.265 959.99 485.002 960.301Q490.739 960.611 496.481 960.78Q502.224 960.949 507.97 960.977Q513.715 961.004 519.459 960.89Q525.203 960.776 530.943 960.521Q536.683 960.266 542.414 959.869Q548.146 959.473 553.866 958.935Q559.586 958.398 565.292 957.72Q570.997 957.041 576.684 956.223Q582.37 955.405 588.035 954.446Q593.7 953.488 599.34 952.391Q604.979 951.293 610.59 950.057Q616.201 948.822 621.78 947.448Q627.358 946.074 632.902 944.563Q638.445 943.053 643.949 941.406Q649.454 939.76 654.916 937.978Q660.378 936.197 665.795 934.281Q671.211 932.365 676.579 930.317Q681.665 928.422 686.702 926.4Q691.74 924.378 696.724 922.231Q701.709 920.083 706.639 917.812Q711.569 915.54 716.44 913.146Q721.311 910.752 726.121 908.236Q730.93 905.721 735.676 903.085Q740.421 900.45 745.099 897.697Q749.776 894.944 754.384 892.075Q758.991 889.205 763.525 886.221Q768.059 883.238 772.517 880.141Q776.975 877.045 781.354 873.838Q785.733 870.63 790.03 867.315Q794.328 863.999 798.541 860.577Q802.753 857.154 806.879 853.628Q811.005 850.101 815.042 846.472Q819.078 842.843 823.022 839.114Q826.966 835.385 830.816 831.559Q834.665 827.732 838.418 823.811Q842.171 819.889 845.824 815.875Q849.477 811.86 853.029 807.756Q856.58 803.651 860.028 799.459Q863.475 795.267 866.817 790.989Q870.158 786.712 873.392 782.353Q876.625 777.993 879.749 773.554Q882.872 769.115 885.883 764.599Q888.894 760.083 891.791 755.493Q894.688 750.903 897.47 746.241Q900.251 741.58 902.915 736.851Q905.578 732.122 908.123 727.327Q910.667 722.533 913.091 717.676Q915.514 712.82 917.815 707.904Q920.117 702.988 922.294 698.016Q925.114 691.784 927.745 685.47Q930.375 679.156 932.813 672.765Q935.252 666.374 937.496 659.913Q939.74 653.451 941.788 646.925Q943.836 640.398 945.685 633.813Q947.535 627.228 949.184 620.589Q950.834 613.951 952.282 607.266Q953.731 600.581 954.976 593.855Q956.222 587.129 957.264 580.369Q958.305 573.609 959.142 566.82Q959.979 560.031 960.61 553.22Q961.242 546.409 961.667 539.582Q962.092 532.755 962.311 525.919Q962.529 519.082 962.541 512.242Q962.553 505.402 962.358 498.564Q962.163 491.727 961.762 484.899Q961.36 478.07 960.753 471.257Q960.145 464.444 959.332 457.652Q958.518 450.861 957.5 444.097Q956.482 437.333 955.26 430.603Q954.038 423.873 952.613 417.183Q951.188 410.493 949.561 403.849Q947.934 397.205 946.108 390.613Q944.281 384.021 942.256 377.488Q940.231 370.954 938.009 364.485Q935.788 358.016 933.372 351.616Q930.955 345.217 928.347 338.894Q925.738 332.571 922.94 326.329Q920.142 320.088 917.156 313.933Q914.17 307.779 911 301.718Q907.829 295.657 904.477 289.695Q901.125 283.732 897.594 277.874C886.909 260.139 874.504 242.279 861.442 226.217C857.934 221.904 841.354 204.993 840.255 201.511C840.171 201.245 840.109 200.973 840.036 200.705Z"/>
	<path fill="#DF7A99" d="M78.8029 638.552C74.3702 628.583 71.0042 608.43 69.0458 597.376Q67.8623 590.993 66.8548 584.58Q65.8472 578.167 65.0162 571.729Q64.1853 565.291 63.5316 558.832Q62.8779 552.374 62.402 545.9Q61.9261 539.426 61.6283 532.941Q61.3305 526.456 61.2111 519.966Q61.0916 513.475 61.1506 506.984Q61.2096 500.492 61.447 494.005Q61.6844 487.518 62.1 481.04Q62.5156 474.561 63.109 468.097Q63.7025 461.633 64.4735 455.187Q65.2444 448.741 66.1922 442.319Q67.14 435.897 68.264 429.504Q69.3879 423.11 70.6872 416.75Q71.9865 410.39 73.46 404.067Q74.9336 397.745 76.5804 391.466Q78.0398 386.122 79.6304 380.815Q81.2209 375.508 82.9418 370.242Q84.6626 364.976 86.5126 359.754Q88.3626 354.532 90.3407 349.357Q92.3188 344.182 94.4238 339.057Q96.5287 333.933 98.7593 328.862Q100.99 323.79 103.345 318.776Q105.699 313.761 108.177 308.806Q110.655 303.851 113.254 298.958Q115.852 294.065 118.571 289.238Q121.29 284.411 124.126 279.652Q126.963 274.894 129.916 270.206Q132.869 265.519 135.937 260.905Q139.005 256.292 142.185 251.756Q145.365 247.22 148.656 242.763Q151.948 238.307 155.348 233.932Q158.747 229.558 162.254 225.269Q165.761 220.98 169.372 216.779Q172.983 212.577 176.697 208.466Q180.41 204.355 184.224 200.337Q188.038 196.318 191.949 192.395Q195.861 188.472 199.868 184.646Q203.875 180.82 207.975 177.094Q212.075 173.369 216.266 169.745Q220.456 166.121 224.735 162.602Q229.013 159.082 233.377 155.669Q237.741 152.256 242.188 148.952Q246.635 145.648 251.161 142.454Q255.688 139.26 260.292 136.178Q264.896 133.097 269.575 130.13Q274.254 127.163 279.004 124.312Q283.754 121.461 288.573 118.728Q292.199 116.676 295.862 114.691Q299.525 112.705 303.223 110.787Q306.921 108.868 310.653 107.016Q314.386 105.165 318.151 103.382Q321.917 101.598 325.714 99.8838Q329.511 98.1691 333.338 96.5236Q337.166 94.8781 341.023 93.3023Q344.88 91.7265 348.764 90.2209Q352.649 88.7154 356.561 87.2805Q360.472 85.8457 364.409 84.4821Q368.346 83.1185 372.307 81.8265Q376.268 80.5345 380.251 79.3147Q384.235 78.0948 388.24 76.9474Q392.245 75.8 396.271 74.7254Q400.296 73.6509 404.34 72.6496Q408.384 71.6483 412.446 70.7205Q416.508 69.7927 420.586 68.9388Q424.664 68.0848 428.756 67.305Q432.849 66.5252 436.955 65.8198Q441.061 65.1144 445.18 64.4836Q449.298 63.8528 453.427 63.2969Q457.556 62.7409 461.694 62.2599Q465.833 61.779 469.979 61.3732Q474.126 60.9674 478.279 60.6369Q482.432 60.3064 486.591 60.0513Q490.749 59.7963 494.912 59.6167Q499.074 59.4371 503.239 59.3331Q507.404 59.2291 511.57 59.2006Q515.737 59.1722 519.903 59.2193Q524.069 59.2665 528.233 59.3892Q532.398 59.512 536.559 59.7103Q540.721 59.9085 544.878 60.1823C558.607 61.1841 576.693 62.2649 589.818 65.8075C590.064 65.9537 590.306 66.1063 590.556 66.2461C594.75 68.5945 604.426 69.2725 609.475 70.3199C619.198 72.3364 628.479 75.0717 637.978 77.9288C641.284 78.9235 644.634 79.3956 647.784 80.8556L647.846 81.8317C642.805 82.6537 640.124 79.7902 636.839 83.9825C635.511 83.0941 635.528 81.8643 634.018 81.4842C633.187 82.2178 632.375 82.9565 631.463 83.5911C631.051 84.5234 630.654 85.3849 630.406 86.373C629.832 88.6581 625.802 93.1713 623.715 94.3312C623.544 94.1833 623.379 94.0295 623.203 93.8875C622.604 93.4029 622.312 93.2613 621.589 93.0886C619.581 93.8289 618.738 94.683 617.853 96.5702C617.272 97.807 616.682 99.823 615.601 100.713C614.034 102.002 611.13 101.657 611.264 104.175L612.269 105.4C611.698 107.982 604.419 114.162 601.967 115.781C600.078 117.029 597.44 115.932 595.839 117.298L595.727 117.815C594.702 122.32 589.159 128.624 589.149 131.803C591.721 134.811 595.837 133.738 598.91 135.912C601.193 137.527 604.246 138.873 606.221 140.802L604.968 140.938L604.934 140.225L604.108 139.931L604.46 140.593C596.923 138.901 569.65 132.237 563.732 133.874C558.242 134.079 551.839 132.422 546.264 131.95C529.3 130.513 507.258 128.892 490.481 131.496C483.289 131.447 475.966 132.311 468.82 133.06Q457.605 134.239 446.481 136.086Q435.356 137.933 424.362 140.441Q413.368 142.95 402.543 146.112Q391.719 149.274 381.103 153.077C375.55 155.049 369.076 156.951 363.944 159.821C353.054 163.648 326.692 175.78 317.647 182.287C313.175 184.618 308.733 187.382 304.543 190.189C302.958 191.083 301.164 191.912 299.836 193.168C279.835 204.699 231.846 245.462 219.35 264.415Q217.065 267.13 214.831 269.887Q212.598 272.644 210.416 275.442Q208.234 278.241 206.106 281.08Q203.977 283.918 201.902 286.797Q199.826 289.675 197.805 292.592Q195.784 295.508 193.819 298.462Q191.853 301.416 189.942 304.406Q188.032 307.397 186.178 310.422Q184.325 313.448 182.528 316.508Q180.731 319.567 178.992 322.66Q177.253 325.753 175.572 328.878Q173.891 332.003 172.269 335.159Q170.647 338.315 169.084 341.501Q167.522 344.687 166.019 347.901Q164.517 351.116 163.074 354.358Q161.632 357.6 160.251 360.868Q158.87 364.137 157.551 367.431Q156.231 370.725 154.973 374.043Q153.716 377.361 152.521 380.702Q151.325 384.043 150.193 387.405Q149.061 390.768 147.991 394.152Q146.922 397.535 145.917 400.938Q144.911 404.341 143.969 407.762Q143.028 411.183 142.15 414.621Q141.273 418.06 140.46 421.514Q139.648 424.968 138.9 428.436Q138.152 431.905 137.469 435.387Q136.786 438.869 136.169 442.363Q135.552 445.857 135 449.363Q134.448 452.868 133.962 456.383Q133.476 459.898 133.056 463.421Q132.636 466.944 132.282 470.475C128.175 502.66 129.103 537.228 133.882 569.282C135.597 580.787 138.549 592.108 140.219 603.591L139.827 604.479C140.121 606.07 140.532 607.539 141.036 609.075C140.857 608.919 140.705 608.728 140.501 608.608C138.543 607.458 135.931 607.918 133.886 608.449L132.905 609.255C132.976 610.377 133.081 611.486 133.21 612.603L133.205 612.536C133.047 612.67 132.895 612.809 132.732 612.937C131.959 613.544 132.258 613.338 131.185 613.65C129.868 615.207 129.012 616.718 128.145 618.561C126.139 619.754 124.986 619.936 124.412 622.357C124.14 623.506 123.921 626.217 123.034 626.807C122.877 625.761 123.007 625.742 122.248 624.905L121.201 626.192L120.457 625.98C120.147 627.579 120.475 630.94 119.567 632.01L118.053 632.438C117.347 634.855 118.225 640.545 118.944 642.978C119.462 642.603 119.697 642.243 120.353 642.268C120.201 643.492 119.739 644.065 119.083 645.069C116.246 649.413 119.501 655.128 117.924 659.912L117.887 659.901L117.012 660.772C115.379 660.745 114.427 660.284 113.26 659.119C112.911 658.77 112.594 658.39 112.267 658.019L111.877 658.558C113.78 663.128 114.986 666.642 113.046 671.525C112.197 673.662 111.066 675.807 109.705 677.663C107.564 680.583 98.5034 688.77 100.901 692.857C102.879 696.228 105.71 699.239 105.671 703.47C105.668 703.762 105.688 704.053 105.69 704.344C105.698 705.198 105.641 706.031 105.572 706.881L106.224 706.675L105.229 706.691C104.839 705.829 104.597 705.133 104.382 704.207C103.671 701.14 100.963 698.024 99.7751 694.958C93.5893 678.997 87.0651 663.309 81.9419 646.949C81.4144 645.265 80.2666 639.329 79.1136 638.42L78.8029 638.552Z"/>
	<defs>
		<linearGradient id="gradient_0" gradientUnits="userSpaceOnUse" x1="858.91669" y1="798.8277" x2="335.00409" y2="365.03168">
			<stop offset="0" stop-color="#BB5A5C"/>
			<stop offset="1" stop-color="#E58E98"/>
		</linearGradient>
	</defs>
	<path fill="url(#gradient_0)" d="M589.818 65.8075C628.648 71.6392 668.815 85.2016 704.122 102.228C712.185 106.116 720.043 110.563 727.916 114.824C743.975 123.513 759.751 132.768 774.48 143.584C787.127 152.87 800.106 163.044 811.746 173.591C821.416 182.353 830.595 191.694 840.036 200.705C840.109 200.973 840.171 201.245 840.255 201.511C841.354 204.993 857.934 221.904 861.442 226.217C874.504 242.279 886.909 260.139 897.594 277.874Q901.125 283.732 904.477 289.695Q907.829 295.657 911 301.718Q914.17 307.779 917.156 313.933Q920.142 320.088 922.94 326.329Q925.738 332.571 928.347 338.894Q930.955 345.217 933.372 351.616Q935.788 358.016 938.009 364.485Q940.231 370.954 942.256 377.488Q944.281 384.021 946.108 390.613Q947.934 397.205 949.561 403.849Q951.188 410.493 952.613 417.183Q954.038 423.873 955.26 430.603Q956.482 437.333 957.5 444.097Q958.519 450.861 959.332 457.652Q960.145 464.444 960.753 471.257Q961.36 478.07 961.762 484.899Q962.163 491.727 962.358 498.564Q962.553 505.402 962.541 512.242Q962.529 519.082 962.311 525.919Q962.092 532.755 961.667 539.582Q961.242 546.409 960.61 553.22Q959.979 560.031 959.142 566.82Q958.305 573.609 957.264 580.369Q956.222 587.129 954.976 593.855Q953.731 600.581 952.282 607.266Q950.834 613.951 949.184 620.589Q947.535 627.228 945.685 633.813Q943.836 640.398 941.788 646.925Q939.74 653.451 937.496 659.913Q935.252 666.374 932.813 672.765Q930.375 679.156 927.745 685.47Q925.114 691.784 922.294 698.016Q920.117 702.988 917.815 707.904Q915.514 712.82 913.091 717.676Q910.667 722.533 908.123 727.328Q905.578 732.122 902.915 736.851Q900.251 741.58 897.47 746.242Q894.688 750.903 891.791 755.493Q888.894 760.083 885.883 764.599Q882.872 769.115 879.749 773.554Q876.625 777.993 873.392 782.353Q870.158 786.712 866.817 790.989Q863.475 795.267 860.028 799.459Q856.58 803.651 853.029 807.756Q849.477 811.86 845.824 815.875Q842.171 819.889 838.418 823.811Q834.665 827.732 830.816 831.559Q826.966 835.385 823.022 839.114Q819.078 842.843 815.042 846.472Q811.005 850.101 806.879 853.628Q802.753 857.154 798.541 860.577Q794.328 863.999 790.03 867.315Q785.733 870.63 781.354 873.838Q776.975 877.045 772.517 880.141Q768.059 883.238 763.525 886.221Q758.991 889.205 754.384 892.075Q749.776 894.944 745.099 897.697Q740.421 900.45 735.676 903.086Q730.93 905.721 726.121 908.236Q721.311 910.752 716.44 913.146Q711.569 915.54 706.639 917.812Q701.709 920.083 696.724 922.231Q691.74 924.378 686.702 926.4Q681.665 928.422 676.579 930.317Q671.211 932.365 665.795 934.281Q660.378 936.197 654.916 937.978Q649.454 939.76 643.949 941.406Q638.445 943.053 632.902 944.564Q627.359 946.074 621.78 947.448Q616.201 948.822 610.59 950.057Q604.979 951.293 599.34 952.391Q593.7 953.488 588.035 954.446Q582.37 955.405 576.684 956.223Q570.997 957.041 565.292 957.72Q559.586 958.398 553.866 958.935Q548.146 959.473 542.414 959.869Q536.683 960.266 530.943 960.521Q525.203 960.776 519.459 960.89Q513.715 961.004 507.97 960.977Q502.224 960.949 496.481 960.78Q490.739 960.611 485.002 960.301Q479.265 959.99 473.537 959.539Q467.809 959.087 462.095 958.495Q456.38 957.903 450.681 957.17Q444.983 956.437 439.304 955.564Q433.626 954.691 427.97 953.678Q422.315 952.666 416.686 951.515Q411.057 950.363 405.459 949.073Q399.86 947.784 394.294 946.357Q388.729 944.929 383.201 943.366Q377.672 941.802 372.184 940.103Q366.696 938.403 361.251 936.569Q355.806 934.735 350.408 932.768Q345.01 930.801 339.662 928.701Q334.314 926.601 329.02 924.37Q323.725 922.139 318.487 919.779Q306.358 914.233 294.702 907.75Q283.047 901.266 271.937 893.887Q263.451 888.242 255.19 882.272C249.572 878.204 243.036 872.063 236.466 869.738Q233.498 867.424 230.568 865.063Q227.638 862.701 224.747 860.293Q221.856 857.884 219.005 855.428Q216.154 852.972 213.343 850.47Q210.532 847.968 207.762 845.421Q204.993 842.874 202.265 840.281Q199.537 837.689 196.852 835.053Q194.166 832.417 191.524 829.737Q188.883 827.057 186.285 824.335Q183.687 821.612 181.134 818.848Q178.58 816.083 176.073 813.278Q173.565 810.472 171.103 807.626Q168.641 804.78 166.226 801.894Q163.811 799.008 161.444 796.083Q159.076 793.158 156.757 790.195Q154.437 787.232 152.166 784.232Q149.895 781.231 147.673 778.194Q145.451 775.157 143.279 772.084Q141.107 769.011 138.986 765.903Q136.864 762.795 134.793 759.653Q132.722 756.511 130.703 753.335Q128.684 750.16 126.717 746.952Q124.75 743.744 122.835 740.504Q120.92 737.265 119.059 733.995Q117.197 730.724 115.389 727.424Q113.581 724.124 111.827 720.794Q110.073 717.465 108.374 714.108Q106.674 710.75 105.03 707.365Q103.385 703.981 101.796 700.57Q100.207 697.159 98.6733 693.722Q97.1399 690.286 95.6628 686.825Q94.1856 683.364 92.7651 679.879C87.4833 666.65 81.9729 652.44 78.8029 638.552L79.1136 638.42C80.2666 639.329 81.4144 645.265 81.9419 646.949C87.0651 663.309 93.5893 678.997 99.7751 694.958C100.963 698.024 103.671 701.14 104.382 704.207C104.597 705.133 104.839 705.829 105.229 706.691L106.224 706.675L105.572 706.881C105.641 706.031 105.698 705.198 105.69 704.344C105.688 704.053 105.668 703.762 105.671 703.47C105.71 699.239 102.879 696.228 100.901 692.857C98.5034 688.77 107.564 680.583 109.705 677.663C111.066 675.807 112.197 673.662 113.046 671.525C114.986 666.642 113.78 663.128 111.877 658.558L112.267 658.019C112.594 658.39 112.911 658.77 113.26 659.119C114.427 660.284 115.379 660.745 117.012 660.772L117.887 659.901L117.924 659.912C119.501 655.128 116.246 649.413 119.083 645.069C119.739 644.065 120.201 643.492 120.353 642.268C119.697 642.243 119.462 642.603 118.944 642.978C118.225 640.545 117.347 634.855 118.053 632.438L119.567 632.01C120.475 630.94 120.147 627.579 120.457 625.98L121.201 626.192L122.248 624.905C123.007 625.742 122.877 625.761 123.034 626.807C123.921 626.217 124.14 623.506 124.412 622.357C124.986 619.936 126.139 619.754 128.145 618.561C129.012 616.718 129.868 615.207 131.185 613.65C132.258 613.338 131.959 613.544 132.732 612.937C132.895 612.809 133.047 612.67 133.205 612.536L133.21 612.603C133.081 611.486 132.976 610.377 132.905 609.255L133.886 608.449C135.931 607.918 138.543 607.458 140.501 608.608C140.705 608.728 140.857 608.919 141.036 609.075C140.532 607.539 140.121 606.07 139.827 604.479L140.219 603.591C142.724 609.351 144.191 617.924 146.014 624.161Q151.007 640.632 157.561 656.547Q158.848 659.71 160.192 662.85Q161.537 665.99 162.937 669.105Q164.337 672.22 165.793 675.309Q167.249 678.398 168.76 681.461Q170.272 684.524 171.838 687.559Q173.404 690.594 175.024 693.6Q176.645 696.607 178.319 699.583Q179.993 702.56 181.72 705.506Q183.448 708.453 185.228 711.367Q187.008 714.282 188.84 717.164Q190.672 720.046 192.556 722.895Q194.44 725.744 196.374 728.559Q198.309 731.373 200.294 734.152Q202.279 736.932 204.313 739.675Q206.347 742.418 208.431 745.124Q210.514 747.83 212.646 750.499Q214.778 753.167 216.957 755.797Q219.137 758.426 221.363 761.016Q223.589 763.606 225.861 766.156Q228.134 768.705 230.452 771.213Q232.77 773.722 235.132 776.188Q237.495 778.654 239.901 781.077Q242.308 783.501 244.758 785.88Q247.207 788.26 249.699 790.595Q252.192 792.931 254.725 795.221Q257.259 797.511 259.833 799.755Q262.408 802 265.022 804.197Q267.636 806.395 270.29 808.545Q272.943 810.695 275.635 812.797Q278.326 814.9 281.055 816.953Q283.784 819.007 286.55 821.011Q289.315 823.015 292.116 824.969Q296.061 827.736 300.075 830.405Q304.088 833.073 308.166 835.64Q312.245 838.208 316.386 840.672Q320.527 843.137 324.729 845.498Q328.93 847.859 333.189 850.114Q337.448 852.37 341.762 854.518Q346.076 856.667 350.442 858.707Q354.808 860.747 359.224 862.678Q363.64 864.608 368.102 866.428Q372.564 868.249 377.071 869.957Q381.577 871.665 386.125 873.26Q390.672 874.856 395.258 876.337Q399.844 877.818 404.466 879.185Q409.087 880.552 413.741 881.803Q418.395 883.054 423.079 884.188Q427.763 885.323 432.474 886.34Q437.184 887.358 441.919 888.257Q446.654 889.157 451.409 889.938Q456.165 890.72 460.938 891.382Q465.712 892.045 470.5 892.588Q475.289 893.131 480.089 893.555Q484.89 893.979 489.7 894.283Q494.51 894.586 499.325 894.77Q504.141 894.954 508.96 895.018Q513.779 895.082 518.598 895.025Q523.417 894.969 528.233 894.792Q533.049 894.616 537.859 894.319Q542.669 894.023 547.47 893.606Q552.272 893.19 557.061 892.654Q561.851 892.118 566.625 891.463Q571.4 890.807 576.156 890.033Q580.913 889.259 585.649 888.367C685.664 870.31 771.326 810.348 828.795 727.39C885.074 646.15 905.928 541 888.222 444.095Q887.597 440.686 886.911 437.288Q886.226 433.89 885.48 430.505Q884.734 427.119 883.929 423.748Q883.123 420.377 882.258 417.02Q881.393 413.663 880.468 410.323Q879.543 406.982 878.56 403.658Q877.576 400.334 876.533 397.028Q875.491 393.722 874.39 390.436Q873.289 387.149 872.129 383.882Q870.97 380.615 869.753 377.37Q868.536 374.124 867.262 370.9Q865.988 367.677 864.656 364.476Q863.325 361.276 861.938 358.099Q860.55 354.923 859.106 351.772Q857.662 348.62 856.162 345.495Q854.663 342.37 853.108 339.272Q851.553 336.174 849.944 333.104Q848.334 330.034 846.67 326.993Q845.007 323.952 843.289 320.941Q841.572 317.93 839.801 314.949Q838.031 311.969 836.208 309.021Q834.385 306.073 832.51 303.158Q830.635 300.242 828.708 297.36Q826.782 294.479 824.804 291.632Q822.827 288.785 820.8 285.973Q818.772 283.161 816.695 280.386Q814.618 277.611 812.492 274.873Q810.366 272.135 808.192 269.436Q806.018 266.736 803.796 264.075Q801.575 261.414 799.306 258.793Q797.037 256.172 794.723 253.592Q792.408 251.012 790.048 248.473C775.972 233.21 760.108 217.995 743.01 206.155C736.659 200.144 726.119 194.113 718.668 189.317Q711.882 185.038 704.919 181.054Q697.956 177.069 690.829 173.386Q683.702 169.704 676.423 166.33Q669.145 162.956 661.729 159.897Q654.313 156.837 646.772 154.098Q639.232 151.36 631.581 148.946Q623.93 146.533 616.183 144.449Q608.436 142.366 600.607 140.616C588.351 137.855 576.056 136.172 563.732 133.874C569.65 132.237 596.923 138.901 604.46 140.593L604.108 139.931L604.934 140.225L604.968 140.938L606.221 140.802C604.246 138.873 601.193 137.527 598.91 135.912C595.837 133.738 591.721 134.811 589.149 131.803C589.159 128.624 594.702 122.32 595.727 117.815L595.839 117.298C597.44 115.932 600.078 117.029 601.967 115.781C604.419 114.162 611.698 107.982 612.269 105.4L611.264 104.175C611.13 101.657 614.034 102.002 615.601 100.713C616.682 99.823 617.272 97.807 617.853 96.5702C618.738 94.683 619.581 93.8289 621.589 93.0886C622.312 93.2613 622.604 93.4029 623.203 93.8875C623.379 94.0295 623.544 94.1833 623.715 94.3312C625.802 93.1713 629.832 88.6581 630.406 86.373C630.654 85.3849 631.051 84.5234 631.463 83.5911C632.375 82.9565 633.187 82.2178 634.018 81.4842C635.528 81.8643 635.511 83.0941 636.839 83.9825C640.124 79.7902 642.805 82.6537 647.846 81.8317L647.784 80.8556C644.634 79.3956 641.284 78.9235 637.978 77.9288C628.479 75.0717 619.198 72.3364 609.475 70.3199C604.426 69.2725 594.75 68.5945 590.556 66.2461C590.306 66.1063 590.064 65.9537 589.818 65.8075Z"/>
	<path fill="#7B3A44" d="M490.481 131.496C507.258 128.892 529.3 130.513 546.264 131.95C551.839 132.422 558.242 134.079 563.732 133.874C576.056 136.172 588.351 137.855 600.607 140.616Q608.436 142.366 616.183 144.449Q623.93 146.533 631.581 148.946Q639.232 151.36 646.772 154.098Q654.313 156.837 661.729 159.897Q669.145 162.956 676.423 166.33Q683.702 169.704 690.829 173.386Q697.956 177.069 704.919 181.054Q711.882 185.038 718.668 189.317C726.119 194.113 736.659 200.144 743.01 206.155C760.108 217.995 775.972 233.21 790.048 248.473Q792.408 251.012 794.723 253.592Q797.037 256.172 799.306 258.793Q801.574 261.414 803.796 264.075Q806.018 266.736 808.192 269.436Q810.366 272.135 812.492 274.873Q814.618 277.611 816.695 280.386Q818.772 283.161 820.8 285.973Q822.827 288.785 824.804 291.632Q826.782 294.479 828.708 297.36Q830.635 300.242 832.51 303.158Q834.385 306.073 836.208 309.021Q838.031 311.969 839.801 314.949Q841.572 317.93 843.289 320.941Q845.007 323.952 846.67 326.993Q848.334 330.034 849.944 333.104Q851.553 336.174 853.108 339.272Q854.663 342.37 856.162 345.495Q857.662 348.62 859.106 351.772Q860.55 354.923 861.938 358.099Q863.325 361.276 864.657 364.476Q865.988 367.677 867.262 370.9Q868.537 374.124 869.753 377.37Q870.97 380.615 872.13 383.882Q873.289 387.149 874.39 390.436Q875.491 393.722 876.533 397.028Q877.576 400.334 878.56 403.658Q879.543 406.982 880.468 410.323Q881.393 413.663 882.258 417.02Q883.123 420.377 883.929 423.748Q884.735 427.119 885.48 430.505Q886.226 433.89 886.911 437.288Q887.597 440.686 888.222 444.095C905.928 541 885.074 646.15 828.795 727.39C771.326 810.348 685.664 870.31 585.649 888.367Q580.913 889.259 576.156 890.033Q571.4 890.807 566.625 891.463Q561.85 892.118 557.061 892.654Q552.272 893.19 547.47 893.606Q542.669 894.023 537.859 894.319Q533.049 894.616 528.233 894.792Q523.417 894.969 518.598 895.025Q513.779 895.082 508.96 895.018Q504.141 894.954 499.325 894.77Q494.51 894.586 489.7 894.283Q484.89 893.979 480.089 893.555Q475.289 893.131 470.5 892.588Q465.712 892.045 460.938 891.382Q456.165 890.72 451.409 889.938Q446.654 889.157 441.919 888.257Q437.184 887.358 432.474 886.34Q427.763 885.323 423.079 884.188Q418.395 883.054 413.741 881.803Q409.087 880.552 404.466 879.185Q399.844 877.818 395.258 876.337Q390.672 874.856 386.125 873.26Q381.577 871.665 377.071 869.957Q372.564 868.248 368.102 866.428Q363.64 864.608 359.224 862.678Q354.808 860.747 350.442 858.707Q346.076 856.667 341.762 854.518Q337.448 852.37 333.189 850.114Q328.93 847.859 324.729 845.498Q320.527 843.137 316.386 840.672Q312.245 838.208 308.166 835.64Q304.088 833.073 300.075 830.405Q296.061 827.736 292.116 824.969Q289.315 823.015 286.55 821.011Q283.784 819.007 281.055 816.953Q278.326 814.9 275.635 812.797Q272.943 810.695 270.29 808.545Q267.636 806.395 265.022 804.197Q262.408 802 259.833 799.755Q257.259 797.511 254.725 795.221Q252.192 792.931 249.699 790.595Q247.207 788.26 244.758 785.88Q242.308 783.501 239.901 781.077Q237.495 778.654 235.132 776.188Q232.77 773.722 230.452 771.213Q228.134 768.705 225.861 766.156Q223.589 763.606 221.363 761.016Q219.137 758.426 216.957 755.797Q214.778 753.167 212.646 750.499Q210.514 747.831 208.431 745.124Q206.347 742.418 204.313 739.675Q202.279 736.932 200.294 734.152Q198.309 731.373 196.374 728.559Q194.44 725.744 192.556 722.895Q190.672 720.046 188.84 717.164Q187.008 714.282 185.228 711.367Q183.448 708.453 181.72 705.506Q179.993 702.56 178.319 699.583Q176.645 696.607 175.024 693.6Q173.404 690.594 171.838 687.559Q170.272 684.524 168.76 681.461Q167.249 678.398 165.793 675.309Q164.337 672.22 162.937 669.105Q161.537 665.99 160.192 662.85Q158.848 659.71 157.561 656.547Q151.007 640.632 146.014 624.161C144.191 617.924 142.724 609.351 140.219 603.591C138.549 592.108 135.597 580.787 133.882 569.282C129.103 537.228 128.175 502.66 132.282 470.475Q132.636 466.944 133.056 463.421Q133.476 459.898 133.962 456.383Q134.448 452.868 135 449.363Q135.552 445.857 136.169 442.363Q136.786 438.869 137.469 435.387Q138.152 431.905 138.9 428.436Q139.648 424.968 140.46 421.513Q141.273 418.059 142.15 414.621Q143.028 411.183 143.969 407.762Q144.911 404.341 145.917 400.938Q146.922 397.535 147.991 394.152Q149.061 390.768 150.193 387.405Q151.325 384.043 152.521 380.702Q153.716 377.361 154.973 374.043Q156.231 370.725 157.551 367.431Q158.87 364.137 160.251 360.868Q161.632 357.6 163.074 354.358Q164.517 351.116 166.019 347.901Q167.522 344.687 169.084 341.501Q170.647 338.315 172.269 335.159Q173.891 332.003 175.572 328.878Q177.253 325.753 178.992 322.66Q180.731 319.567 182.528 316.508Q184.325 313.448 186.178 310.422Q188.032 307.397 189.942 304.406Q191.853 301.416 193.819 298.462Q195.784 295.508 197.805 292.592Q199.826 289.675 201.902 286.797Q203.977 283.918 206.106 281.08Q208.234 278.241 210.416 275.442Q212.598 272.644 214.831 269.887Q217.065 267.13 219.35 264.415C231.846 245.462 279.835 204.699 299.836 193.168C301.164 191.912 302.958 191.083 304.543 190.189C308.733 187.382 313.175 184.618 317.647 182.287C326.692 175.78 353.054 163.648 363.944 159.821C369.076 156.951 375.55 155.049 381.103 153.077Q391.719 149.274 402.543 146.112Q413.368 142.95 424.362 140.441Q435.356 137.933 446.481 136.086Q457.605 134.239 468.82 133.06C475.966 132.311 483.289 131.447 490.481 131.496Z"/>
	<path fill="#5B262D" d="M363.944 159.821C369.076 156.951 375.55 155.049 381.103 153.077Q391.719 149.274 402.543 146.112Q413.368 142.95 424.362 140.441Q435.356 137.933 446.481 136.086Q457.605 134.239 468.82 133.06C475.966 132.311 483.289 131.447 490.481 131.496C485.26 135.747 444.935 134.562 435.905 140.513C429.595 141.58 423.294 143.414 417.102 145.027C379.125 154.919 344.845 171.601 310.13 189.483L309.975 188.894L310.638 187.801C309.003 188.566 307.697 189.422 306.186 190.321C305.911 190.485 305.605 190.593 305.314 190.729L304.543 190.189C308.733 187.382 313.175 184.618 317.647 182.287C326.692 175.78 353.054 163.648 363.944 159.821Z"/>
	<path fill="#5B262D" d="M299.836 193.168L299.615 194.216C297.761 195.38 295.307 196.346 294.508 198.479C294.435 198.674 294.439 198.89 294.386 199.092C294.091 200.208 293.419 201.097 292.575 201.868C288.809 205.311 284.044 208.092 279.991 211.244Q267.379 221.218 255.233 231.754Q254.285 231.212 253.345 230.655C250.117 233.202 242.217 239.546 240.219 242.865C240.501 242.881 240.783 242.891 241.065 242.912C242.15 242.995 241.743 242.865 242.537 243.313C239.298 247.366 234.945 250.233 231.828 254.401C227.464 260.238 222.59 267.85 217.136 272.663L216.768 273.175C213.62 277.501 209.82 281.311 206.667 285.618C202.788 290.918 199.36 296.709 195.759 302.209C191.624 308.524 187.244 314.706 183.208 321.08C181.185 324.273 179.109 327.509 177.332 330.846C175.519 334.25 174.116 339.177 171.657 342.028L170.95 340.326C168.971 343.396 158.974 364.585 159.314 366.96L159.249 365.939L159.732 366.499L159.199 366.665L159.218 366.241L159.913 366.194C162.792 360.09 165.14 351.315 169.449 346.219L169.788 346.384C169.214 348.54 167.756 350.338 166.87 352.384C165.32 355.96 164.629 359.704 162.656 363.117C158.784 369.814 153.31 386.561 151.555 394.272C151.299 395.396 150.771 396.361 150.191 397.346L149.802 397.407C149.299 391.678 156.399 382.073 154.607 378.236C152.615 381.646 142.8 412.154 143.369 415.147C143.395 415.28 143.45 415.405 143.49 415.534C144.003 413.915 144.326 411.921 145.535 410.71C144.349 421.743 140.874 433.261 138.532 444.157C136.776 452.329 135.77 460.561 133.789 468.705L133.954 467.419C133.482 469.268 133.06 470.939 133.036 472.855C132.664 472.044 132.447 471.351 132.282 470.475Q132.636 466.944 133.056 463.421Q133.476 459.898 133.962 456.383Q134.448 452.868 135 449.363Q135.552 445.857 136.169 442.363Q136.786 438.869 137.469 435.387Q138.152 431.905 138.9 428.436Q139.648 424.968 140.46 421.513Q141.273 418.059 142.15 414.621Q143.028 411.183 143.969 407.762Q144.911 404.341 145.917 400.938Q146.922 397.535 147.991 394.152Q149.061 390.768 150.193 387.405Q151.325 384.043 152.521 380.702Q153.716 377.361 154.973 374.043Q156.231 370.725 157.551 367.431Q158.87 364.137 160.251 360.868Q161.632 357.6 163.074 354.358Q164.517 351.116 166.019 347.901Q167.522 344.687 169.084 341.501Q170.647 338.315 172.269 335.159Q173.891 332.003 175.572 328.878Q177.253 325.753 178.992 322.66Q180.731 319.567 182.528 316.508Q184.325 313.448 186.178 310.422Q188.032 307.397 189.942 304.406Q191.853 301.416 193.819 298.462Q195.784 295.508 197.805 292.592Q199.826 289.675 201.902 286.797Q203.977 283.918 206.106 281.08Q208.234 278.241 210.416 275.442Q212.598 272.644 214.831 269.887Q217.065 267.13 219.35 264.415C231.846 245.462 279.835 204.699 299.836 193.168Z"/>
	<path fill="#DF7A99" d="M138.95 495.917Q138.935 494.679 138.955 493.441C139.187 478.172 141.472 462.83 144.053 447.812Q144.658 444.181 145.335 440.562Q146.012 436.944 146.761 433.339Q147.509 429.735 148.329 426.146Q149.15 422.558 150.041 418.986Q150.932 415.414 151.894 411.861Q152.856 408.307 153.889 404.774Q154.921 401.24 156.024 397.728Q157.126 394.216 158.298 390.726Q159.47 387.236 160.712 383.771Q161.953 380.305 163.263 376.865Q164.572 373.424 165.95 370.01Q167.328 366.597 168.773 363.211Q170.219 359.825 171.731 356.469Q173.243 353.113 174.822 349.787Q176.401 346.462 178.046 343.168Q179.69 339.875 181.4 336.614Q183.109 333.354 184.883 330.129Q186.657 326.903 188.495 323.713Q190.333 320.523 192.234 317.371Q194.134 314.218 196.097 311.104Q198.06 307.99 200.085 304.915Q202.11 301.841 204.195 298.807Q206.28 295.773 208.425 292.781Q210.57 289.79 212.774 286.841Q214.978 283.893 217.24 280.988Q219.503 278.084 221.822 275.226Q224.142 272.367 226.517 269.555Q228.893 266.743 231.324 263.979Q233.756 261.214 236.241 258.499Q238.727 255.784 241.266 253.118Q243.805 250.453 246.396 247.838Q248.988 245.224 251.631 242.661C311.071 185.727 395.091 147.377 477.257 141.169C485.89 140.517 494.657 139.755 503.323 139.946C506.263 140.245 510.469 139.722 513.142 140.707C512.93 142.319 512.361 143.619 511.08 144.661C506.869 148.083 500.329 149.351 495.746 152.445C494.524 152.191 495.012 152.373 493.776 152.588C493.513 152.633 492.315 152.48 492.02 152.447L491.947 153.462L491.75 152.425C490.255 153.008 490.626 154.079 489.585 154.841C488.016 155.989 482.729 157.253 480.766 157.651C476.154 162.182 474.45 172.609 467.089 173.139L466.459 174.644C466.291 174.648 466.122 174.647 465.954 174.654C465.118 174.692 465.415 174.674 464.458 174.937C462.179 178.581 461.166 179.785 456.808 180.919C451.501 182.3 448.106 177.691 444.623 178.237C443.914 178.348 442.788 179.055 442.094 179.364L442.094 178.782L441.612 179.444L440.708 179.063C439.247 178.456 437.518 177.508 435.924 178.156C435.541 178.311 435.064 178.679 434.697 178.921C433.502 179.704 432.071 180.228 430.763 180.802C428.32 181.875 427.155 182.886 425.935 185.257C426.953 189.208 432.703 191.006 429.363 196.04C428.888 196.757 428.315 197.417 427.782 198.091C426.697 199.463 425.948 201.249 424.517 202.25L424.1 202.229L424.673 201.395L424.256 200.528C420.79 200.865 419.167 203.137 416.957 205.492C416.407 206.078 416.276 206.547 416.077 207.303C330.807 236.631 262.724 293.698 223.037 375.16C215.996 389.611 210.2 404.069 205.516 419.445C203.288 426.762 201.651 434.329 199.32 441.592C199.185 441.329 199.044 441.07 198.914 440.805C197.066 437.049 200.674 429.145 201.78 425.217C202.053 424.247 202.028 423.15 202.342 422.223C202.563 421.573 203.006 420.938 203.364 420.364L203.128 419.732C201.88 420.241 201.262 420.955 200.711 422.197C199.351 425.263 198.706 428.635 197.466 431.752C196.529 434.106 195.087 436.072 193.846 438.252Q193.704 436.505 193.625 434.754C192.838 434.749 193.029 434.6 192.468 435.227C191.618 436.177 191.328 437.241 190.94 438.423L189.999 439.146C188.851 438.715 188.438 438.184 187.642 437.305C185.81 435.279 183.491 435.135 181.637 433.053L180.696 433.275L179.757 432.273L179.327 432.68C179.344 432.924 179.371 433.168 179.378 433.413C179.411 434.472 179.482 433.986 179.154 434.709C177.625 438.081 182.646 448.557 178.764 450.346C177.434 450.959 175.384 451.157 174.275 452.084C172.843 453.281 172.465 455.907 170.886 456.786L170.023 455.862C169.065 456.831 169.125 458.186 168.005 458.554C166.802 458.95 165.684 459.196 164.748 460.103C163.523 461.29 163.059 463.298 161.946 464.639C160.244 466.69 156.558 468.195 155.425 470.572C155.006 471.452 155.253 473.075 155.312 474.037C154.263 475.71 152.464 476.763 151.509 478.491C149.277 482.532 151.885 487.5 150.67 491.57C150.183 493.2 147.782 494.125 147.211 495.731C146.329 498.214 147.158 501.347 146.165 503.861C144.831 504.151 143.501 504.439 142.156 504.677C140.75 509.422 138.981 513.846 139.241 518.855C137.948 513.435 140.022 502.562 138.95 495.917Z"/>
	<defs>
		<linearGradient id="gradient_1" gradientUnits="userSpaceOnUse" x1="799.64111" y1="748.2887" x2="274.79788" y2="316.62973">
			<stop offset="0" stop-color="#BE6163"/>
			<stop offset="1" stop-color="#ED929D"/>
		</linearGradient>
	</defs>
	<path fill="url(#gradient_1)" d="M503.323 139.946C516.574 138.362 531.446 139.792 544.698 140.864Q548.057 141.128 551.41 141.452Q554.764 141.777 558.111 142.162Q561.458 142.548 564.798 142.995Q568.137 143.441 571.468 143.948Q574.799 144.455 578.12 145.023Q581.441 145.591 584.751 146.219Q588.061 146.847 591.359 147.535Q594.657 148.223 597.942 148.971Q601.228 149.719 604.498 150.527Q607.769 151.335 611.025 152.202Q614.281 153.069 617.52 153.995Q620.76 154.922 623.982 155.907Q627.203 156.892 630.407 157.935Q633.611 158.979 636.795 160.08Q639.979 161.182 643.142 162.341Q646.306 163.501 649.447 164.717Q652.589 165.934 655.708 167.208Q658.827 168.482 661.923 169.812Q665.018 171.142 668.089 172.529Q671.16 173.915 674.205 175.357Q677.25 176.799 680.268 178.296Q683.286 179.794 686.277 181.345Q689.267 182.897 692.229 184.503Q695.191 186.11 698.123 187.769Q701.055 189.429 703.956 191.142Q706.858 192.855 709.727 194.62Q712.597 196.385 715.434 198.202Q718.271 200.02 721.075 201.888Q723.878 203.757 726.647 205.676Q729.417 207.595 732.15 209.565Q734.884 211.534 737.581 213.553Q740.279 215.571 742.939 217.639Q746.515 220.484 750.02 223.415Q753.526 226.346 756.959 229.361Q760.392 232.376 763.75 235.474Q767.109 238.572 770.391 241.751Q773.674 244.93 776.878 248.188Q780.082 251.446 783.206 254.78Q786.329 258.115 789.371 261.525Q792.413 264.935 795.371 268.417Q798.328 271.9 801.201 275.454Q804.073 279.007 806.858 282.63Q809.643 286.252 812.339 289.942Q815.035 293.631 817.64 297.385Q820.245 301.138 822.759 304.954Q825.272 308.77 827.692 312.646Q830.112 316.522 832.436 320.456Q834.761 324.39 836.989 328.379Q839.217 332.368 841.348 336.41Q843.479 340.452 845.51 344.545Q847.542 348.638 849.473 352.779Q851.405 356.92 853.235 361.107Q855.065 365.294 856.792 369.524Q858.52 373.754 860.144 378.025Q861.769 382.296 863.288 386.605Q864.808 390.914 866.223 395.259Q867.637 399.603 868.946 403.981Q870.254 408.359 871.456 412.768Q872.657 417.176 873.751 421.613Q874.845 426.049 875.831 430.511Q876.816 434.973 877.693 439.457Q878.57 443.941 879.337 448.446Q880.104 452.95 880.762 457.472Q881.42 461.994 881.967 466.53Q882.462 470.601 882.868 474.681Q883.275 478.762 883.592 482.85Q883.909 486.938 884.137 491.033Q884.365 495.127 884.504 499.225Q884.643 503.323 884.693 507.424Q884.742 511.524 884.702 515.625Q884.662 519.725 884.533 523.824Q884.404 527.922 884.186 532.017Q883.967 536.112 883.66 540.201Q883.352 544.29 882.955 548.372Q882.559 552.453 882.073 556.525Q881.588 560.597 881.014 564.657Q880.44 568.717 879.778 572.764Q879.115 576.811 878.365 580.842Q877.615 584.874 876.776 588.888Q875.938 592.902 875.013 596.897Q874.088 600.891 873.076 604.865Q872.064 608.839 870.965 612.79Q869.867 616.741 868.682 620.667Q867.498 624.592 866.229 628.492Q864.959 632.391 863.605 636.261Q862.251 640.132 860.813 643.972Q859.375 647.812 857.853 651.62Q856.331 655.428 854.727 659.202Q853.123 662.976 851.437 666.714Q849.751 670.452 847.984 674.152Q846.217 677.853 844.37 681.514Q842.523 685.175 840.596 688.795Q838.67 692.415 836.665 695.992Q834.66 699.569 832.577 703.101Q830.495 706.634 828.336 710.12Q826.177 713.607 823.943 717.045C816.689 728.218 808.474 738.778 800.216 749.22C783.692 770.116 764.942 787.597 744.118 804.123C688.23 848.474 626.931 875.115 555.854 883.403Q544.863 884.675 533.814 885.278Q522.766 885.882 511.701 885.815Q500.637 885.748 489.596 885.01Q478.556 884.273 467.581 882.868C393.833 874.108 333.143 847.061 275.143 801.038C201.351 742.483 151.861 651.828 141.185 558.428Q138.236 533.647 138.438 508.691C138.471 504.552 138.222 499.985 138.95 495.917C140.022 502.562 137.948 513.435 139.241 518.855C138.981 513.846 140.75 509.422 142.156 504.677C143.501 504.439 144.831 504.151 146.165 503.861C147.158 501.347 146.329 498.214 147.211 495.731C147.782 494.125 150.183 493.2 150.67 491.57C151.885 487.5 149.277 482.532 151.509 478.491C152.464 476.763 154.263 475.71 155.312 474.037C155.253 473.075 155.006 471.452 155.425 470.572C156.558 468.195 160.244 466.69 161.946 464.639C163.059 463.298 163.523 461.29 164.748 460.103C165.684 459.196 166.802 458.95 168.005 458.554C169.125 458.186 169.065 456.831 170.023 455.862L170.886 456.786C172.465 455.907 172.843 453.281 174.275 452.084C175.384 451.157 177.434 450.959 178.764 450.346C182.646 448.557 177.625 438.081 179.154 434.709C179.482 433.986 179.411 434.472 179.378 433.413C179.371 433.168 179.344 432.924 179.327 432.68L179.757 432.273L180.696 433.275L181.637 433.053C183.491 435.135 185.81 435.279 187.642 437.305C188.438 438.184 188.851 438.715 189.999 439.146L190.94 438.423C191.328 437.241 191.618 436.177 192.468 435.227C193.029 434.6 192.838 434.749 193.625 434.754Q193.704 436.505 193.846 438.252C195.087 436.072 196.529 434.106 197.466 431.752C198.706 428.635 199.351 425.263 200.711 422.197C201.262 420.955 201.88 420.241 203.128 419.732L203.364 420.364C203.006 420.938 202.563 421.573 202.342 422.223C202.028 423.15 202.053 424.247 201.78 425.217C200.674 429.145 197.066 437.049 198.914 440.805C199.044 441.07 199.185 441.329 199.32 441.592C196.369 456.283 193.795 470.911 192.577 485.863Q192.298 489.115 192.086 492.371Q191.874 495.628 191.73 498.888Q191.586 502.149 191.509 505.411Q191.433 508.674 191.424 511.937Q191.415 515.201 191.474 518.464Q191.533 521.727 191.66 524.988Q191.786 528.249 191.981 531.507Q192.175 534.765 192.437 538.018Q192.698 541.271 193.028 544.518Q193.357 547.765 193.753 551.004Q194.15 554.243 194.613 557.474Q195.077 560.704 195.608 563.924Q196.138 567.144 196.735 570.353Q197.333 573.561 197.996 576.756Q198.66 579.952 199.39 583.133Q200.12 586.314 200.915 589.479Q201.711 592.644 202.572 595.792Q203.433 598.939 204.36 602.069Q205.286 605.198 206.277 608.307Q207.268 611.417 208.323 614.505Q209.379 617.593 210.498 620.659Q211.617 623.724 212.8 626.766Q213.982 629.808 215.227 632.825Q216.473 635.841 217.78 638.831Q219.088 641.821 220.458 644.784Q221.827 647.746 223.258 650.679Q224.688 653.613 226.179 656.515Q227.671 659.418 229.222 662.29Q230.773 665.161 232.383 668Q233.993 670.838 235.662 673.643Q237.331 676.448 239.058 679.217Q240.784 681.986 242.568 684.719C245.469 689.08 249.223 693.692 251.452 698.396C252.23 702.145 258.032 707.982 260.556 711.13C282.686 738.732 308.201 762.753 337.861 782.177Q342.321 785.123 346.878 787.917Q351.434 790.712 356.082 793.352Q360.73 795.992 365.463 798.475Q370.197 800.958 375.011 803.281Q379.825 805.604 384.714 807.764Q389.604 809.924 394.563 811.919Q399.522 813.914 404.545 815.742Q409.568 817.569 414.649 819.227Q419.731 820.886 424.865 822.372Q430 823.859 435.181 825.173Q440.362 826.487 445.584 827.627Q450.807 828.766 456.064 829.73Q461.322 830.693 466.609 831.48Q471.896 832.267 477.207 832.876Q482.517 833.486 487.845 833.916Q493.173 834.347 498.512 834.599C506.201 834.927 523.081 835.437 530.029 834.026L530.834 834.096L534.04 831.432C541.35 830.578 548.706 830.117 556.025 829.227C559.969 828.596 563.919 827.893 567.894 827.493C575.771 825.857 583.661 824.273 591.44 822.211C679.695 798.816 744.779 748.044 790.452 669.139Q792.039 666.396 793.57 663.622Q795.101 660.848 796.576 658.043Q798.051 655.239 799.469 652.405Q800.888 649.572 802.249 646.71Q803.61 643.849 804.913 640.96Q806.216 638.072 807.461 635.158Q808.705 632.244 809.891 629.305Q811.077 626.367 812.203 623.405Q813.33 620.444 814.396 617.46Q815.463 614.476 816.469 611.471Q817.476 608.467 818.422 605.442Q819.367 602.418 820.252 599.375Q821.136 596.333 821.96 593.273Q822.783 590.213 823.544 587.137Q824.306 584.061 825.005 580.971Q825.705 577.88 826.342 574.776Q826.979 571.672 827.553 568.556Q828.128 565.44 828.639 562.312Q829.151 559.185 829.6 556.049Q830.048 552.912 830.434 549.767Q830.819 546.621 831.141 543.469Q831.463 540.317 831.721 537.159Q831.98 534.001 832.175 530.838Q832.37 527.675 832.501 524.509Q832.632 521.343 832.7 518.175Q832.767 515.007 832.771 511.839Q832.775 508.67 832.714 505.502Q832.654 502.334 832.53 499.167Q832.407 496.001 832.219 492.838Q832.032 489.675 831.78 486.516Q831.529 483.357 831.215 480.204Q830.9 477.051 830.522 473.905C828.363 456.672 824.344 439.844 819.874 423.085C817.18 417.984 815.73 411.184 813.774 405.671Q808.353 390.412 801.41 375.782Q800.03 372.909 798.595 370.063Q797.159 367.217 795.667 364.4Q794.176 361.583 792.63 358.795Q791.083 356.008 789.482 353.251Q787.882 350.495 786.227 347.771Q784.572 345.046 782.865 342.355Q781.157 339.663 779.397 337.006Q777.636 334.348 775.824 331.726Q774.012 329.104 772.149 326.517Q770.286 323.931 768.372 321.382Q766.459 318.832 764.496 316.321Q762.532 313.81 760.52 311.338Q758.508 308.866 756.448 306.434Q754.387 304.001 752.28 301.61Q750.172 299.219 748.018 296.869Q745.864 294.52 743.664 292.213Q741.464 289.906 739.219 287.643Q736.975 285.38 734.686 283.162Q732.397 280.943 730.065 278.77Q727.734 276.596 725.36 274.469Q722.986 272.342 720.57 270.262Q718.155 268.182 715.699 266.15Q713.244 264.118 710.749 262.134Q708.253 260.15 705.72 258.216Q703.186 256.282 700.615 254.397Q698.044 252.513 695.437 250.68Q692.829 248.846 690.186 247.065Q687.543 245.283 684.866 243.553Q682.188 241.823 679.478 240.147Q676.767 238.47 674.023 236.847Q671.28 235.223 668.505 233.654Q665.731 232.085 662.926 230.571C584.655 188.766 500.71 181.532 416.077 207.303C416.276 206.547 416.407 206.078 416.957 205.492C419.167 203.137 420.79 200.865 424.256 200.528L424.673 201.395L424.1 202.229L424.517 202.25C425.948 201.249 426.697 199.463 427.782 198.091C428.315 197.417 428.888 196.757 429.363 196.04C432.703 191.006 426.953 189.208 425.935 185.257C427.155 182.886 428.32 181.875 430.763 180.802C432.071 180.228 433.502 179.704 434.697 178.921C435.064 178.679 435.541 178.311 435.924 178.156C437.518 177.508 439.247 178.456 440.708 179.063L441.612 179.444L442.094 178.782L442.094 179.364C442.788 179.055 443.914 178.348 444.623 178.237C448.106 177.691 451.501 182.3 456.808 180.919C461.166 179.785 462.179 178.581 464.458 174.937C465.415 174.674 465.118 174.692 465.954 174.654C466.122 174.647 466.291 174.648 466.459 174.644L467.089 173.139C474.45 172.609 476.154 162.182 480.766 157.651C482.729 157.253 488.016 155.989 489.585 154.841C490.626 154.079 490.255 153.008 491.75 152.425L491.947 153.462L492.02 152.447C492.315 152.48 493.513 152.633 493.776 152.588C495.012 152.373 494.524 152.191 495.746 152.445C500.329 149.351 506.869 148.083 511.08 144.661C512.361 143.619 512.93 142.319 513.142 140.707C510.469 139.722 506.263 140.245 503.323 139.946Z"/>
	<path fill="#3F141A" d="M556.025 829.227C559.969 828.596 563.919 827.893 567.894 827.493C570.428 828.924 573.362 828.406 576.257 828.493C573.186 829.285 569.645 830.469 566.464 830.496C555.04 832.927 542.527 834.197 530.834 834.096L534.04 831.432C541.35 830.578 548.706 830.117 556.025 829.227Z"/>
	<defs>
		<linearGradient id="gradient_2" gradientUnits="userSpaceOnUse" x1="667.48633" y1="676.50073" x2="759.73126" y2="728.67145">
			<stop offset="0" stop-color="#2D0307"/>
			<stop offset="1" stop-color="#582829"/>
		</linearGradient>
	</defs>
	<path fill="url(#gradient_2)" d="M819.874 423.085L820.309 422.951C822.106 427.561 822.573 432.648 824.433 437.157C826.22 441.488 829.304 459.296 830.215 464.794Q831.089 470.277 831.773 475.787Q832.456 481.297 832.948 486.828Q833.439 492.359 833.739 497.903Q834.038 503.447 834.145 508.999Q834.252 514.55 834.166 520.102Q834.08 525.653 833.801 531.199Q833.523 536.744 833.052 542.277Q832.581 547.809 831.918 553.322Q831.256 558.834 830.402 564.321Q829.549 569.807 828.505 575.261Q827.462 580.714 826.23 586.128Q824.997 591.542 823.578 596.91Q822.159 602.278 820.554 607.593Q818.949 612.909 817.161 618.165Q815.373 623.422 813.403 628.613Q811.434 633.804 809.285 638.924Q808.114 641.759 806.888 644.57Q805.662 647.381 804.383 650.169Q803.103 652.956 801.77 655.718Q800.437 658.48 799.05 661.215Q797.664 663.951 796.225 666.66Q794.786 669.368 793.295 672.048Q791.804 674.728 790.262 677.379Q788.719 680.03 787.126 682.651Q785.532 685.271 783.889 687.861Q782.245 690.45 780.552 693.007Q778.859 695.564 777.116 698.088Q775.374 700.612 773.583 703.102Q771.792 705.592 769.954 708.047Q768.115 710.502 766.23 712.92Q764.344 715.339 762.412 717.721Q760.48 720.103 758.503 722.448Q756.525 724.792 754.503 727.097Q752.48 729.403 750.414 731.669Q748.347 733.935 746.237 736.161Q744.127 738.387 741.975 740.572Q739.822 742.756 737.628 744.899Q735.433 747.042 733.198 749.142Q730.963 751.242 728.688 753.298Q726.412 755.354 724.097 757.367Q721.783 759.379 719.43 761.346Q717.076 763.312 714.686 765.234Q712.295 767.155 709.868 769.03Q707.44 770.904 704.977 772.732Q702.514 774.559 700.017 776.339Q697.519 778.118 694.987 779.849Q692.455 781.58 689.89 783.262Q687.326 784.944 684.729 786.576C670.933 795.222 656.93 802.937 641.81 809.066C629.445 814.079 588.367 828.234 576.257 828.493C573.362 828.406 570.428 828.924 567.894 827.493C575.771 825.857 583.661 824.273 591.44 822.211C679.695 798.816 744.779 748.044 790.452 669.139Q792.039 666.396 793.57 663.622Q795.101 660.848 796.576 658.043Q798.051 655.239 799.469 652.405Q800.888 649.572 802.249 646.71Q803.61 643.849 804.913 640.96Q806.216 638.072 807.461 635.158Q808.705 632.244 809.891 629.305Q811.077 626.367 812.203 623.405Q813.33 620.444 814.396 617.46Q815.463 614.476 816.469 611.471Q817.476 608.467 818.422 605.442Q819.367 602.418 820.252 599.375Q821.136 596.333 821.96 593.273Q822.783 590.213 823.544 587.137Q824.306 584.061 825.005 580.971Q825.705 577.88 826.342 574.776Q826.979 571.672 827.553 568.556Q828.128 565.44 828.639 562.312Q829.151 559.185 829.6 556.049Q830.048 552.912 830.434 549.767Q830.819 546.621 831.141 543.469Q831.463 540.317 831.721 537.159Q831.98 534.001 832.175 530.838Q832.37 527.675 832.501 524.509Q832.632 521.343 832.7 518.175Q832.767 515.007 832.771 511.839Q832.775 508.67 832.714 505.502Q832.654 502.334 832.53 499.167Q832.407 496.001 832.219 492.838Q832.032 489.675 831.78 486.516Q831.529 483.357 831.215 480.204Q830.9 477.051 830.522 473.905C828.363 456.672 824.344 439.844 819.874 423.085Z"/>
	<path fill="#FEFEFE" d="M416.077 207.303C500.71 181.532 584.655 188.766 662.926 230.571Q665.731 232.085 668.505 233.654Q671.28 235.223 674.023 236.847Q676.767 238.47 679.478 240.147Q682.188 241.823 684.866 243.553Q687.543 245.283 690.186 247.065Q692.829 248.846 695.437 250.68Q698.044 252.513 700.615 254.397Q703.186 256.282 705.72 258.216Q708.253 260.15 710.749 262.134Q713.244 264.118 715.699 266.15Q718.155 268.182 720.57 270.262Q722.986 272.342 725.36 274.469Q727.734 276.596 730.065 278.77Q732.397 280.943 734.686 283.162Q736.975 285.38 739.219 287.643Q741.464 289.906 743.664 292.213Q745.864 294.52 748.018 296.869Q750.172 299.219 752.28 301.61Q754.387 304.001 756.448 306.434Q758.508 308.866 760.52 311.338Q762.532 313.81 764.495 316.321Q766.459 318.832 768.372 321.382Q770.286 323.931 772.149 326.517Q774.012 329.104 775.824 331.726Q777.636 334.348 779.397 337.006Q781.157 339.663 782.865 342.355Q784.572 345.046 786.227 347.771Q787.882 350.495 789.482 353.251Q791.083 356.008 792.63 358.795Q794.176 361.583 795.667 364.4Q797.159 367.217 798.594 370.063Q800.03 372.909 801.41 375.782Q808.353 390.412 813.774 405.671C815.73 411.184 817.18 417.984 819.874 423.085C824.344 439.844 828.363 456.672 830.522 473.905Q830.9 477.051 831.215 480.204Q831.529 483.357 831.781 486.516Q832.032 489.675 832.219 492.838Q832.407 496.001 832.531 499.167Q832.654 502.334 832.715 505.502Q832.775 508.67 832.771 511.839Q832.767 515.007 832.7 518.175Q832.632 521.343 832.501 524.509Q832.37 527.675 832.175 530.838Q831.98 534.001 831.721 537.159Q831.463 540.317 831.141 543.469Q830.819 546.621 830.434 549.767Q830.048 552.912 829.6 556.049Q829.151 559.185 828.639 562.312Q828.128 565.44 827.553 568.556Q826.979 571.672 826.342 574.776Q825.705 577.88 825.005 580.971Q824.306 584.061 823.544 587.137Q822.783 590.213 821.96 593.273Q821.136 596.333 820.252 599.375Q819.367 602.418 818.422 605.442Q817.476 608.467 816.469 611.471Q815.463 614.476 814.396 617.46Q813.33 620.444 812.203 623.405Q811.077 626.367 809.891 629.305Q808.705 632.244 807.461 635.158Q806.216 638.072 804.913 640.96Q803.61 643.849 802.249 646.71Q800.888 649.572 799.469 652.405Q798.051 655.239 796.576 658.043Q795.101 660.848 793.57 663.622Q792.039 666.396 790.452 669.139C744.779 748.044 679.695 798.816 591.44 822.211C583.661 824.273 575.771 825.857 567.894 827.493C563.919 827.893 559.969 828.596 556.025 829.227C548.706 830.117 541.35 830.578 534.04 831.432L530.834 834.096L530.029 834.026C523.081 835.437 506.201 834.927 498.512 834.599Q493.173 834.347 487.845 833.916Q482.517 833.485 477.207 832.876Q471.896 832.267 466.609 831.48Q461.322 830.693 456.064 829.73Q450.807 828.766 445.584 827.627Q440.362 826.487 435.181 825.173Q430 823.859 424.865 822.372Q419.731 820.886 414.649 819.227Q409.568 817.569 404.545 815.742Q399.522 813.914 394.563 811.919Q389.604 809.924 384.714 807.764Q379.825 805.604 375.011 803.281Q370.197 800.958 365.463 798.475Q360.73 795.992 356.082 793.352Q351.434 790.712 346.878 787.917Q342.321 785.123 337.861 782.177C308.201 762.753 282.686 738.732 260.556 711.13C258.032 707.982 252.23 702.145 251.452 698.396C249.223 693.692 245.469 689.08 242.568 684.719Q240.784 681.986 239.058 679.217Q237.331 676.448 235.662 673.643Q233.993 670.838 232.383 668Q230.773 665.161 229.222 662.29Q227.671 659.418 226.179 656.515Q224.688 653.613 223.258 650.679Q221.827 647.746 220.458 644.784Q219.088 641.821 217.78 638.831Q216.473 635.841 215.227 632.825Q213.982 629.808 212.8 626.766Q211.617 623.724 210.498 620.659Q209.379 617.593 208.323 614.505Q207.268 611.417 206.277 608.307Q205.286 605.198 204.36 602.069Q203.433 598.939 202.572 595.792Q201.711 592.644 200.915 589.479Q200.12 586.314 199.39 583.133Q198.66 579.952 197.996 576.756Q197.333 573.561 196.735 570.353Q196.138 567.144 195.608 563.924Q195.077 560.704 194.614 557.474Q194.15 554.243 193.753 551.004Q193.357 547.764 193.028 544.518Q192.698 541.271 192.437 538.018Q192.175 534.765 191.981 531.507Q191.786 528.249 191.66 524.988Q191.533 521.727 191.474 518.464Q191.415 515.201 191.424 511.937Q191.433 508.674 191.509 505.411Q191.586 502.149 191.73 498.888Q191.874 495.628 192.086 492.371Q192.298 489.115 192.577 485.863C193.795 470.911 196.369 456.283 199.32 441.592C201.651 434.329 203.288 426.762 205.516 419.445C210.2 404.069 215.996 389.611 223.037 375.16C262.724 293.698 330.807 236.631 416.077 207.303Z"/>
	<path fill="#100" d="M514.814 832.033C521.213 832.012 527.643 831.649 534.04 831.432L530.834 834.096L530.029 834.026C526.263 833.506 516.376 835.213 513.871 832.868L514.814 832.033Z"/>
	<path fill="#3F141A" d="M251.452 698.396L252.014 698.977C256.091 703.255 259.573 708.58 263.308 713.21C271.069 722.831 279.423 732.425 288.279 741.054Q290.9 743.619 293.58 746.122Q296.26 748.626 298.996 751.068Q301.733 753.509 304.524 755.887Q307.316 758.265 310.162 760.578Q313.008 762.892 315.905 765.139Q318.803 767.387 321.752 769.567Q324.701 771.747 327.699 773.859Q330.697 775.971 333.743 778.014Q336.789 780.056 339.881 782.028Q342.973 784.001 346.109 785.901Q349.246 787.802 352.425 789.63Q355.604 791.458 358.824 793.213Q362.045 794.967 365.304 796.647Q368.564 798.328 371.862 799.933Q375.159 801.538 378.492 803.066Q381.826 804.595 385.194 806.047Q388.561 807.499 391.961 808.873Q395.362 810.247 398.792 811.543Q402.223 812.839 405.683 814.056Q409.142 815.272 412.629 816.409Q416.116 817.546 419.627 818.602Q423.139 819.659 426.674 820.635Q430.21 821.61 433.766 822.504Q437.323 823.399 440.899 824.211Q444.475 825.023 448.069 825.753Q451.663 826.483 455.273 827.13Q458.883 827.778 462.506 828.342Q466.13 828.906 469.765 829.387Q473.401 829.868 477.047 830.265Q480.693 830.663 484.346 830.976Q488 831.29 491.66 831.519Q495.321 831.749 498.985 831.894Q506.898 832.114 514.814 832.033L513.871 832.868C516.376 835.213 526.263 833.506 530.029 834.026C523.081 835.437 506.201 834.927 498.512 834.599Q493.173 834.347 487.845 833.916Q482.517 833.485 477.207 832.876Q471.896 832.267 466.609 831.48Q461.322 830.693 456.064 829.73Q450.807 828.766 445.584 827.627Q440.362 826.487 435.181 825.173Q430 823.859 424.865 822.372Q419.731 820.886 414.649 819.227Q409.568 817.569 404.545 815.742Q399.522 813.914 394.563 811.919Q389.604 809.924 384.714 807.764Q379.825 805.604 375.011 803.281Q370.197 800.958 365.463 798.475Q360.73 795.992 356.082 793.352Q351.434 790.712 346.878 787.917Q342.321 785.123 337.861 782.177C308.201 762.753 282.686 738.732 260.556 711.13C258.032 707.982 252.23 702.145 251.452 698.396Z"/>
	<path fill="#5B262D" d="M373.986 233.694C385.051 227.076 398.466 222.293 410.627 218.023Q413.268 217.078 415.926 216.183Q418.583 215.288 421.258 214.443Q423.932 213.598 426.621 212.803Q429.311 212.008 432.014 211.263Q434.718 210.518 437.435 209.824Q440.153 209.13 442.882 208.486Q445.612 207.843 448.353 207.251Q451.095 206.659 453.847 206.118Q456.599 205.577 459.36 205.088Q462.121 204.598 464.892 204.161Q467.662 203.723 470.44 203.337Q473.217 202.951 476.002 202.617Q478.787 202.283 481.577 202.001Q484.367 201.719 487.162 201.489Q489.957 201.26 492.756 201.082Q495.555 200.905 498.357 200.78Q501.159 200.654 503.962 200.582Q506.766 200.509 509.57 200.488Q512.375 200.468 515.179 200.5Q517.983 200.532 520.787 200.616Q523.59 200.7 526.391 200.837Q529.192 200.973 531.99 201.162Q534.789 201.351 537.583 201.593Q540.377 201.834 543.166 202.127Q545.955 202.42 548.738 202.766Q551.521 203.111 554.298 203.508Q557.074 203.905 559.842 204.355Q562.611 204.804 565.37 205.304Q568.13 205.805 570.879 206.357Q573.629 206.909 576.368 207.513Q579.106 208.116 581.833 208.77Q584.561 209.425 587.275 210.13Q589.985 210.819 592.682 211.556Q595.379 212.293 598.063 213.078Q600.746 213.863 603.415 214.696Q606.084 215.529 608.738 216.41Q611.392 217.29 614.03 218.218Q616.668 219.145 619.288 220.12Q621.909 221.094 624.512 222.115Q627.115 223.136 629.699 224.204Q632.284 225.271 634.848 226.384Q637.413 227.498 639.958 228.657Q642.503 229.815 645.026 231.02Q647.55 232.224 650.051 233.473Q652.553 234.722 655.032 236.015Q657.511 237.308 659.966 238.646Q662.422 239.983 664.853 241.364Q667.284 242.745 669.69 244.169Q672.096 245.593 674.477 247.06Q676.857 248.527 679.211 250.036Q681.565 251.545 683.891 253.096Q686.218 254.647 688.516 256.239Q690.815 257.831 693.085 259.464Q695.354 261.097 697.595 262.77Q699.835 264.443 702.045 266.156Q704.255 267.869 706.434 269.621Q708.613 271.372 710.761 273.163Q712.908 274.954 715.024 276.782Q717.139 278.611 719.221 280.477Q721.303 282.343 723.352 284.246Q725.401 286.149 727.415 288.088Q729.43 290.027 731.409 292.002Q733.388 293.976 735.332 295.986Q737.276 297.996 739.184 300.04C746.971 308.317 756.094 317.689 761.975 327.432C757.885 324.723 754.019 318.188 750.764 314.384Q744.751 307.451 738.445 300.783Q734.086 296.144 729.541 291.689Q724.996 287.233 720.271 282.967Q715.547 278.702 710.651 274.634Q705.756 270.566 700.697 266.703Q695.639 262.839 690.426 259.186Q685.214 255.534 679.856 252.098Q674.497 248.662 669.003 245.449Q663.508 242.237 657.886 239.252C611.477 214.49 564.063 203.479 511.646 203.794C489.066 203.929 466.797 206.054 444.822 211.54Q425.489 216.335 406.864 223.397C400.48 225.829 394.219 229.204 387.697 231.14C387.497 231.199 387.296 231.253 387.096 231.31C371.119 239.05 356.115 247.735 341.168 257.271C314.998 272.916 289.767 299.774 270.039 322.762C266.091 327.362 259.291 339.086 255.282 342.121L254.999 342.657C250.562 350.917 245.049 358.612 240.504 366.836C234.366 377.939 229.312 389.91 224.182 401.521C221.82 402.36 221.539 406.143 219.409 407.633L218.607 407.056C226.292 387.42 234.999 368.3 246.293 350.438C248.437 345.191 253.344 339.156 256.629 334.467Q260.899 328.411 265.449 322.562Q269.999 316.714 274.819 311.085Q279.639 305.457 284.718 300.061Q289.797 294.665 295.124 289.514Q300.451 284.363 306.014 279.468Q311.577 274.573 317.364 269.944Q323.15 265.316 329.148 260.964Q335.146 256.613 341.342 252.548C350.943 246.027 363.107 237.774 373.986 233.694Z"/>
	<defs>
		<linearGradient id="gradient_3" gradientUnits="userSpaceOnUse" x1="745.23059" y1="717.8783" x2="280.90356" y2="311.11935">
			<stop offset="0" stop-color="#C1666B"/>
			<stop offset="1" stop-color="#E78E98"/>
		</linearGradient>
	</defs>
	<path fill="url(#gradient_3)" d="M387.096 231.31C387.296 231.253 387.497 231.199 387.697 231.14C394.219 229.204 400.48 225.829 406.864 223.397Q425.489 216.335 444.822 211.54C466.797 206.054 489.066 203.929 511.646 203.794C564.063 203.479 611.477 214.49 657.886 239.252Q663.508 242.237 669.003 245.449Q674.497 248.662 679.856 252.098Q685.214 255.534 690.426 259.186Q695.639 262.839 700.697 266.703Q705.756 270.566 710.651 274.634Q715.547 278.702 720.271 282.967Q724.996 287.233 729.541 291.689Q734.086 296.144 738.445 300.783Q744.751 307.451 750.764 314.384C754.019 318.188 757.885 324.723 761.975 327.432C765.749 330.115 771.918 340.583 774.653 344.883C797.85 381.354 813.605 420.616 820.855 463.265Q821.644 468.165 822.276 473.089Q822.908 478.012 823.381 482.953Q823.855 487.894 824.17 492.847Q824.485 497.801 824.64 502.762Q824.796 507.723 824.793 512.687Q824.789 517.651 824.626 522.612Q824.464 527.573 824.142 532.526Q823.82 537.479 823.34 542.419Q822.859 547.359 822.221 552.282Q821.582 557.204 820.786 562.103Q819.989 567.003 819.036 571.874Q818.083 576.745 816.974 581.583Q815.865 586.422 814.602 591.222Q813.339 596.022 811.922 600.779Q810.505 605.536 808.937 610.245Q807.368 614.955 805.649 619.611C800.048 634.426 792.906 648.542 785.293 662.408C779.348 673.237 773.143 683.915 765.989 693.999Q763.766 697.133 761.467 700.211Q759.168 703.29 756.793 706.311Q754.419 709.332 751.971 712.293Q749.523 715.255 747.004 718.156Q744.484 721.056 741.893 723.894Q739.303 726.732 736.643 729.505Q733.984 732.278 731.257 734.985Q728.53 737.692 725.738 740.331Q722.945 742.97 720.089 745.539Q717.232 748.109 714.313 750.608Q711.394 753.106 708.415 755.532Q705.435 757.958 702.397 760.311Q699.359 762.663 696.264 764.939Q693.168 767.216 690.018 769.416Q686.868 771.616 683.665 773.737Q680.461 775.859 677.207 777.901Q673.952 779.944 670.649 781.906Q667.345 783.867 663.994 785.747Q660.643 787.627 657.247 789.424Q653.85 791.221 650.411 792.934Q646.972 794.647 643.491 796.274Q640.011 797.902 636.491 799.444Q632.972 800.985 629.416 802.44Q625.859 803.895 622.269 805.262Q618.678 806.629 615.054 807.907Q611.431 809.185 607.777 810.373Q604.123 811.562 600.441 812.66Q596.759 813.759 593.051 814.766Q589.344 815.774 585.612 816.69Q581.881 817.606 578.128 818.43Q574.375 819.254 570.603 819.986Q566.831 820.717 563.042 821.356C480.906 835.201 399.295 814.587 331.793 766.511Q327.39 763.431 323.097 760.2Q318.804 756.969 314.626 753.59Q310.448 750.211 306.39 746.689Q302.333 743.167 298.4 739.505Q294.467 735.844 290.665 732.048Q286.862 728.252 283.193 724.326Q279.525 720.4 275.996 716.348Q272.467 712.296 269.08 708.124Q265.694 703.952 262.456 699.665Q259.217 695.378 256.129 690.98Q253.042 686.583 250.109 682.08Q247.177 677.578 244.403 672.976Q241.629 668.374 239.017 663.679Q236.405 658.983 233.958 654.199Q231.511 649.416 229.232 644.549Q226.953 639.683 224.845 634.741C221.61 627.081 216.951 618.3 215.242 610.159C194.515 546.312 193.548 469.935 218.607 407.056L219.409 407.633C221.539 406.143 221.82 402.36 224.182 401.521C229.312 389.91 234.366 377.939 240.504 366.836C245.049 358.612 250.562 350.917 254.999 342.657L255.282 342.121C259.291 339.086 266.091 327.362 270.039 322.762C289.767 299.774 314.998 272.916 341.168 257.271C356.115 247.735 371.119 239.05 387.096 231.31Z"/>
	<path fill="#3F141A" d="M566.428 687.948C571.897 687.926 577.729 687.533 583.162 687.99C586.88 689.511 590.555 689.71 594.51 689.936C588.736 690.033 582.962 690.175 577.188 690.011C568.432 690.664 559.338 690.285 550.545 690.326C542.456 690.363 533.938 690.937 525.915 690.081L525.636 690.004C524.281 689.34 521.949 689.964 521.063 689.055L521.771 688.608C522.81 688.534 523.943 688.342 524.936 688.718C526.249 689.213 524.301 688.723 526.422 689.165L527.005 688.068Q534.656 687.868 542.308 688.058L566.428 687.948Z"/>
	<path fill="#3F141A" d="M658.395 604.591C658.457 603.014 658.402 601.366 658.809 599.841L659.263 599.837C660.192 606.766 659.636 614.487 659.671 621.483C659.761 639.162 661.779 655.782 650.402 670.671C642.938 680.44 631.896 688.106 619.507 689.652C618.358 689.795 617.209 689.958 616.051 689.921L615.9 689.223C614.952 688.195 613.332 688.09 612.017 687.801Q613.077 687.734 614.133 687.621Q615.189 687.508 616.24 687.349Q617.29 687.19 618.332 686.985Q619.375 686.781 620.407 686.531Q621.439 686.281 622.46 685.986Q623.481 685.692 624.487 685.353Q625.494 685.014 626.485 684.631Q627.476 684.249 628.449 683.824Q629.423 683.399 630.377 682.931Q631.331 682.464 632.263 681.956Q633.196 681.447 634.106 680.899Q635.015 680.35 635.9 679.763Q636.785 679.175 637.643 678.549Q638.502 677.923 639.332 677.261Q640.162 676.598 640.963 675.9Q641.764 675.202 642.533 674.47C657.583 660.242 658.63 646.026 658.33 626.542Q658.094 615.566 658.395 604.591Z"/>
	<path fill="#5B262D" d="M380.104 673.261C394.559 688.13 408.075 686.966 427.195 688.022C445.18 687.513 463.28 687.918 481.279 687.908C496.469 687.9 511.847 687.392 527.005 688.068L526.422 689.165C524.301 688.723 526.249 689.213 524.936 688.718C523.943 688.342 522.81 688.534 521.771 688.608L521.063 689.055C521.949 689.964 524.281 689.34 525.636 690.004C512.786 690.328 499.875 689.98 487.016 690.019C475.576 690.053 463.991 690.541 452.574 690.066C446.03 690.683 439.206 690.363 432.628 690.4C417.304 690.488 402.464 691.637 389.155 682.553C386.512 680.75 380.709 676.423 380.104 673.261Z"/>
	<path fill="#7B3A44" d="M218.607 407.056L219.409 407.633C221.539 406.143 221.82 402.36 224.182 401.521C219.702 413.804 215.122 426.353 211.718 438.974Q210.651 443.07 209.695 447.193Q208.74 451.316 207.897 455.463Q207.055 459.611 206.325 463.78Q205.596 467.949 204.98 472.136Q204.364 476.323 203.863 480.526Q203.361 484.728 202.974 488.943Q202.588 493.157 202.316 497.381Q202.044 501.604 201.887 505.834Q201.73 510.063 201.688 514.295Q201.647 518.527 201.72 522.759Q201.794 526.991 201.982 531.219Q202.171 535.447 202.475 539.668Q202.779 543.889 203.198 548.101Q203.616 552.312 204.149 556.511Q204.683 560.71 205.33 564.892Q205.977 569.075 206.738 573.238C207.612 578.257 215.744 607.59 215.242 610.159C194.515 546.312 193.548 469.935 218.607 407.056Z"/>
	<path fill="#FEFEFE" d="M477.583 516.363C458.508 507.34 450.625 500.379 442.573 480.202C431.315 451.995 429.125 408.207 441.463 380.082C448.822 363.309 462.098 349.715 479.24 343.035C500.693 334.675 528.332 335.67 549.281 345.14Q550.556 345.724 551.804 346.363Q553.053 347.001 554.273 347.693Q555.493 348.384 556.682 349.126Q557.871 349.869 559.028 350.662Q560.184 351.455 561.306 352.297Q562.427 353.138 563.512 354.027Q564.596 354.916 565.642 355.85Q566.687 356.785 567.692 357.763Q568.697 358.741 569.659 359.761Q570.62 360.782 571.538 361.842Q572.455 362.903 573.327 364.001Q574.198 365.1 575.021 366.235Q575.845 367.37 576.619 368.539Q577.393 369.708 578.116 370.909Q578.84 372.111 579.511 373.341Q580.183 374.572 580.801 375.831C583.245 380.922 584.931 386.389 586.915 391.67C592.992 398.952 593.064 435.057 592.151 445.312C590.168 467.596 582.861 495.177 564.906 510.07C560.768 513.503 556.151 516.008 551.164 517.973C549.732 518.458 548.294 518.607 547.443 519.978C544.73 524.347 548.181 531.431 544.961 535.558C555.893 538.949 566.966 541.612 577.687 545.701C606.719 556.775 636.358 576.402 657.955 598.725C658.096 600.67 658.155 602.658 658.395 604.591Q658.094 615.566 658.33 626.542C658.63 646.026 657.583 660.242 642.533 674.47Q641.764 675.202 640.963 675.9Q640.162 676.598 639.332 677.261Q638.502 677.923 637.643 678.549Q636.785 679.175 635.9 679.763Q635.015 680.35 634.106 680.899Q633.196 681.447 632.263 681.956Q631.331 682.464 630.377 682.931Q629.423 683.399 628.449 683.824Q627.476 684.249 626.485 684.631Q625.494 685.014 624.487 685.353Q623.481 685.692 622.46 685.986Q621.439 686.281 620.407 686.531Q619.375 686.781 618.332 686.985Q617.29 687.19 616.24 687.349Q615.189 687.508 614.133 687.621Q613.077 687.734 612.017 687.801C613.332 688.09 614.952 688.195 615.9 689.223L616.051 689.921C608.913 690.419 601.658 690.121 594.51 689.936C590.555 689.71 586.88 689.511 583.162 687.99C577.729 687.533 571.897 687.926 566.428 687.948L542.308 688.058Q534.656 687.868 527.005 688.068C511.847 687.392 496.469 687.9 481.279 687.908C463.28 687.918 445.18 687.513 427.195 688.022C408.075 686.966 394.559 688.13 380.104 673.261C377.913 668.848 373.843 665.345 371.828 660.611C365.653 646.104 367.165 615.459 367.561 599.146C374.325 593.51 380.392 587.073 387.212 581.509C415.546 558.387 443.478 545.106 478.537 535.47C477.87 529.086 477.404 522.786 477.583 516.363Z"/>
	<path fill="#5B262D" d="M544.961 535.558L544.088 535.128C543.01 532.363 544.35 519.995 545.475 517.148C546.12 515.518 547.589 515.317 549.075 514.731C547.721 516.157 546.528 517.525 545.466 519.184C548.077 518.663 548.131 517.847 551.164 517.973C549.732 518.458 548.294 518.607 547.443 519.978C544.73 524.347 548.181 531.431 544.961 535.558Z"/>
	<path fill="#5B262D" d="M583.162 687.99C592.759 687.889 602.441 688.328 612.017 687.801C613.332 688.09 614.952 688.195 615.9 689.223L616.051 689.921C608.913 690.419 601.658 690.121 594.51 689.936C590.555 689.71 586.88 689.511 583.162 687.99Z"/>
	<path fill="#3F141A" d="M586.915 391.67C592.992 398.952 593.064 435.057 592.151 445.312C590.168 467.596 582.861 495.177 564.906 510.07C560.768 513.503 556.151 516.008 551.164 517.973C548.131 517.847 548.077 518.663 545.466 519.184C546.528 517.525 547.721 516.157 549.075 514.731C559.843 510.489 568.262 503.035 574.471 493.351C593.136 464.243 594.247 424.461 586.915 391.67Z"/>
</svg>
